<svg id="Capa_1" data-name="Capa 1" xmlns="http://www.w3.org/2000/svg" viewBox="0 0 551.52 97.05"><defs><style>.cls-1{fill:#dc1963;}.cls-2{fill:#eb8fb9;}.cls-3,.cls-4{fill:none;}.cls-3{stroke:#dc1963;stroke-miterlimit:10;stroke-width:1.67px;}</style></defs><path class="cls-1" d="M203.56,342.72a.35.35,0,0,0-.06-.19.34.34,0,0,0-.13-.29.3.3,0,0,0-.21-.06c-.15,0-.31.21-.41.31l0,.05h0a.39.39,0,0,0-.06-.2.3.3,0,0,0-.34-.34c-.15,0-.31.2-.41.31-2.3,2.76-4.61,8.81-5.84,12.13-1.43,4.05-2.71,8.15-4,12.24-.21.62-.26.83-.67.83-.1,0-.26-.06-.46-.06a29.62,29.62,0,0,0-3-.2,127.82,127.82,0,0,0-21.76,1.54c.65-1.75,1.3-3.45,2-5.2a135,135,0,0,0,4.35-13,18.75,18.75,0,0,0,.77-6.91,7.07,7.07,0,0,0-.47-1.94,1,1,0,0,0-.06-.18,3.84,3.84,0,0,0-3.31-2.69,5,5,0,0,0-1.55-.24c-5.94,0-16.49,8.25-17.46,14.7a3.69,3.69,0,0,0,0,.66,2,2,0,0,0,0,.35c0,.07,0,.15,0,.22s0,.06,0,.09h0c0,.08,0,.16,0,.23a3.27,3.27,0,0,0,2.44,3.16,9.89,9.89,0,0,0,2.16.21c.1,0,.29,0,.35-.15l.49,0c.11,0,.31,0,.36-.15a.14.14,0,0,0,0-.07s0,0,0,0v0a.19.19,0,0,0,.13-.13.2.2,0,0,0-.08-.17l0,0a.19.19,0,0,0-.09-.17l0,0c0-.2-.21-.25-.36-.25l-.52,0a.34.34,0,0,0-.33-.17,3.26,3.26,0,0,1-.67-.05c-.37,0-.76,0-1.15-.09l-.05,0a2.17,2.17,0,0,1-1.37-1.15,3,3,0,0,1,0-1,9.45,9.45,0,0,1,1-2.81c2.71-5,9.58-10.46,14.69-11.46.24,0,.49-.05.72-.05,2.29,0,3.62,1.36,3.75,3.82a22.69,22.69,0,0,1-1.19,5.86c-2.05,6.35-4.46,12.55-6.92,18.79a1,1,0,0,1-.82.72c-3.12.67-13.77,3.79-15.67,6.25a.91.91,0,0,0-.29.8s0,0,0,.06a1,1,0,0,0,0,.25s0,.08,0,.13,0,.1,0,.15,0,0,0,0,0,.11,0,.16a.77.77,0,0,0,.61.8,6.06,6.06,0,0,0,.92.2c.72.06,1.49.06,2.2.11s1.64.2,2.41.31a6.79,6.79,0,0,1,4.45,3,3.84,3.84,0,0,0-.18-.35l.18.25a5.61,5.61,0,0,0-.53-.9,7.1,7.1,0,0,1,.53.67c0-.07-.07-.13-.1-.19l.11.13-.07-.12.06.08h0l.14.18-.21-.38a1.33,1.33,0,0,1,.14.19c-.07-.15-.15-.28-.23-.42l.17.21-.09-.16.09.11-.08-.14c.07.09.14.17.21.27-.07-.14-.14-.26-.21-.38l.14.18c-.07-.14-.15-.28-.23-.41l.17.21c-.06-.13-.14-.25-.2-.37a8.34,8.34,0,0,1,1,1.22c-.05-.12-.12-.23-.18-.35l.18.25a5.58,5.58,0,0,0-.73-1.18,8.12,8.12,0,0,1,.74.89l-.08-.13.21.26-.21-.38a2.31,2.31,0,0,1,.14.19c-.07-.15-.15-.28-.23-.42l.17.21a6.18,6.18,0,0,0-4.56-3.43l-.3-.05-.55-.14a34.35,34.35,0,0,0-4.15-.43l.18-.11c4-2.51,9-3.92,13.57-5.07-1.33,3.17-2.62,6.39-4,9.56a1.23,1.23,0,0,0-.23-.33c0,.08.05.15.07.22h0c0,.07.05.13.07.2h0l0,.1a1.19,1.19,0,0,0-.16-.23c0,.12.08.24.12.36a.64.64,0,0,1,0,.07.76.76,0,0,0-.11-.14l.07.19-.07-.09.06.15a.22.22,0,0,1-.19.12c-.2,0-.2-.25-.3-.4a2.14,2.14,0,0,0-.41-.72l.07.22v0c0,.07.05.14.07.2h0l0,.1a1.19,1.19,0,0,0-.16-.23l0,.1,0-.05.07.22h0c0,.06.05.13.07.2h0a0,0,0,0,0,0,0,1,1,0,0,0-.15-.2l0,.07,0,0s0,.08,0,.13a.18.18,0,0,0,0-.07l.15.43a.7.7,0,0,0-.15-.2c0,.06,0,.12.07.19a.31.31,0,0,0-.07-.09,10.27,10.27,0,0,0,.42,1.07.06.06,0,0,0,0,0,1.11,1.11,0,0,1-.07.16c-2,4.72-4.09,9.48-6.14,14.19-.67,1.53-1.43,3-2,4.61a1.16,1.16,0,0,0,0,.52s0,0,0,0a2,2,0,0,0,0,.25c0,.05,0,.1,0,.15a1.77,1.77,0,0,0,0,.23s0,.06,0,.09a.88.88,0,0,0,.42.87.39.39,0,0,0,.21,0,.6.6,0,0,0,.47-.32.83.83,0,0,0,.17.15.39.39,0,0,0,.21,0c.3,0,.46-.31.61-.52a37.31,37.31,0,0,0,4.36-6.6,45.56,45.56,0,0,0,2-4.25,18.29,18.29,0,0,0,1.48-7.22,1.93,1.93,0,0,1,.16-.77q2.84-6.53,5.38-13.11s0,0,0-.05a.87.87,0,0,1,.66-.41c1.64-.35,3.29-.64,5-.9a110.55,110.55,0,0,1,15.91-1.13c1.23,0,2.51.05,3.79.15a1.85,1.85,0,0,1,.77.15h0c-1,3.17-1.95,6.29-2.92,9.47-1.28,4.3-2.51,8.71-3.64,13.06a1.93,1.93,0,0,0-.07.65s0,0,0,.06a.53.53,0,0,0,0,.25.49.49,0,0,0,0,.17.38.38,0,0,0,0,.15.5.5,0,0,0,0,.17.32.32,0,0,0,.29.4s.1.05.15.05.27-.15.31-.32a.31.31,0,0,0,.1-.15c0,.14.08.25.29.29.05,0,.1.05.15.05s.27-.15.31-.32.15-.45.23-.65c1.49-5.69,3.23-11.27,5-16.9l1.84-5.84c0-.09.07-.18.1-.26a.54.54,0,0,1,.54-.2c.2,0,.26-.11.24-.24s0,0,0,0c.15,0,.16-.24.06-.35a3.14,3.14,0,0,0-.16-.44.94.94,0,0,1-.17-.18,1.9,1.9,0,0,1,.15-.59c1.08-3.28,2.15-6.51,3.23-9.74a88.33,88.33,0,0,1,5.14-12.43c.31-.57.64-1.14,1-1.7a.36.36,0,0,0,0-.09l.1-.17C203.59,343.13,203.7,342.91,203.56,342.72ZM151.2,354.29a2.43,2.43,0,0,0,0,.27c0,.07,0,.15,0,.22a3.38,3.38,0,0,0,.32,1.39,1.9,1.9,0,0,1-.66-.78,2.2,2.2,0,0,1,0-.37,2.45,2.45,0,0,1,0-.27,8.35,8.35,0,0,1,.56-1.93,6.47,6.47,0,0,0-.15.74A3.6,3.6,0,0,0,151.2,354.29Zm5.36,37.45c-.41,1-.87,2-1.36,3C155.65,393.75,156.11,392.75,156.56,391.74Zm15.87-45.46c0-.32,0-.63,0-.95a11.14,11.14,0,0,0-.08-1.82,7,7,0,0,0-.47-1.93,4.62,4.62,0,0,1,.76,2.56A17.09,17.09,0,0,1,172.43,346.28Zm-21.3,10.42.11.11Zm.77-.3-.05,0a1,1,0,0,1-.14-.21A2.23,2.23,0,0,0,151.9,356.4Zm6.28,33.48a17.36,17.36,0,0,0,.51-2.88c.08-.17.15-.33.22-.5a1.3,1.3,0,0,1,0,.21A14.85,14.85,0,0,1,158.18,389.88Z" transform="translate(-23.83 -316.51)"/><path class="cls-1" d="M203.56,342.56a.39.39,0,0,0-.06-.2.3.3,0,0,0-.34-.34c-.15,0-.31.21-.41.31l0,0h0a.35.35,0,0,0-.06-.19.33.33,0,0,0-.13-.29.3.3,0,0,0-.21-.06c-.15,0-.31.21-.41.31-2.3,2.77-4.61,8.81-5.84,12.14-1.43,4.05-2.71,8.14-4,12.24-.21.62-.26.82-.67.82-.1,0-.26-.05-.46-.05a29.62,29.62,0,0,0-3-.2,127.81,127.81,0,0,0-21.76,1.53c.65-1.74,1.3-3.44,2-5.19a136,136,0,0,0,4.35-13,18.77,18.77,0,0,0,.77-6.91,7.15,7.15,0,0,0-.47-1.95,1.27,1.27,0,0,0-.06-.18,3.85,3.85,0,0,0-3.31-2.69,5,5,0,0,0-1.55-.23c-5.94,0-16.49,8.24-17.46,14.7a3.58,3.58,0,0,0,0,.65,2,2,0,0,0,0,.35c0,.08,0,.15,0,.22s0,.07,0,.1h0c0,.08,0,.15,0,.23a3.28,3.28,0,0,0,2.44,3.16,10.54,10.54,0,0,0,2.16.21c.1,0,.29,0,.35-.15l.49,0c.11,0,.31,0,.36-.16a.25.25,0,0,0,0-.07l0,0v0a.21.21,0,0,0,.13-.13.2.2,0,0,0-.08-.17s0,0,0,0a.21.21,0,0,0-.09-.17l0,0c0-.2-.21-.26-.36-.26a3.2,3.2,0,0,1-.52,0,.35.35,0,0,0-.33-.16,3.26,3.26,0,0,1-.67-.05c-.37,0-.76-.05-1.15-.1h-.05a2.17,2.17,0,0,1-1.37-1.15,3,3,0,0,1,0-1,9.36,9.36,0,0,1,1-2.81c2.71-5,9.58-10.46,14.69-11.46.24,0,.49-.05.72-.05,2.29,0,3.62,1.35,3.75,3.81a22.61,22.61,0,0,1-1.19,5.86c-2.05,6.35-4.46,12.55-6.92,18.8a1.06,1.06,0,0,1-.82.72c-3.12.66-13.77,3.79-15.67,6.25a.89.89,0,0,0-.29.8s0,0,0,.05a1,1,0,0,0,0,.25c0,.05,0,.09,0,.13s0,.1,0,.15,0,0,0,0,0,.1,0,.15a.78.78,0,0,0,.61.81,6.06,6.06,0,0,0,.92.2c.72.05,1.49.05,2.2.1l2.41.31a6.83,6.83,0,0,1,4.45,3,3.65,3.65,0,0,0-.18-.34l.18.24a6.09,6.09,0,0,0-.53-.9c.19.22.36.44.53.68l-.1-.2a1.34,1.34,0,0,0,.11.14,1.27,1.27,0,0,0-.07-.12l.06.08v0l.14.19c-.07-.14-.14-.26-.21-.38l.14.18c-.07-.15-.15-.28-.23-.42l.17.22-.09-.16.09.1-.08-.13.21.26-.21-.38a2.31,2.31,0,0,1,.14.19c-.07-.15-.15-.28-.23-.42l.17.21c-.06-.13-.14-.24-.2-.36a8.8,8.8,0,0,1,1,1.21,3.65,3.65,0,0,0-.18-.34l.18.24a5.58,5.58,0,0,0-.73-1.18,8.25,8.25,0,0,1,.74.9l-.08-.14.21.27c-.07-.14-.14-.26-.21-.38l.14.18c-.07-.14-.15-.28-.23-.41l.17.21a6.15,6.15,0,0,0-4.56-3.43l-.3-.05c-.18-.05-.36-.11-.55-.15a36.49,36.49,0,0,0-4.15-.43l.18-.1c4-2.51,9-3.93,13.57-5.07-1.33,3.17-2.62,6.39-4,9.56a1.23,1.23,0,0,0-.23-.33l.07.22v0c0,.07.05.14.07.2h0l0,.1a1.19,1.19,0,0,0-.16-.23c0,.12.08.24.12.36a.64.64,0,0,0,0,.07,1.43,1.43,0,0,0-.11-.15c0,.07,0,.13.07.2a.61.61,0,0,0-.07-.1l.06.15c-.05.07-.1.13-.19.13s-.2-.26-.3-.41a2.24,2.24,0,0,0-.41-.72c0,.08.05.15.07.22h0c0,.07.05.13.07.2h0l0,.1a1.19,1.19,0,0,0-.16-.23l0,.11,0-.05c0,.07.05.14.07.22v0c0,.07.05.14.07.2h0a0,0,0,0,0,0,0,1,1,0,0,0-.15-.2l0,.07s0,0,0,0,0,.08,0,.12l0-.06.15.43a.91.91,0,0,0-.15-.21c0,.07,0,.13.07.19l-.07-.09a9.61,9.61,0,0,0,.42,1.08,0,0,0,0,0,0,0,1.22,1.22,0,0,1-.07.17c-2,4.71-4.09,9.47-6.14,14.18-.67,1.54-1.43,3-2,4.61a1.17,1.17,0,0,0,0,.52s0,0,0,0a2.18,2.18,0,0,0,0,.25c0,.05,0,.1,0,.16a1.62,1.62,0,0,0,0,.22s0,.07,0,.1a.89.89,0,0,0,.42.87.39.39,0,0,0,.21.05.62.62,0,0,0,.47-.32.79.79,0,0,0,.17.14.39.39,0,0,0,.21.05c.3,0,.46-.3.61-.51a37.39,37.39,0,0,0,4.36-6.61,44.4,44.4,0,0,0,2-4.25,18.25,18.25,0,0,0,1.48-7.22,1.93,1.93,0,0,1,.16-.77c1.89-4.35,3.69-8.7,5.38-13.11l0,0a.91.91,0,0,1,.66-.42c1.64-.34,3.29-.64,5-.9a112,112,0,0,1,15.91-1.12c1.23,0,2.51,0,3.79.15a1.7,1.7,0,0,1,.77.15h0c-1,3.18-1.95,6.3-2.92,9.48-1.28,4.3-2.51,8.7-3.64,13.06a1.87,1.87,0,0,0-.07.64s0,0,0,.07a.49.49,0,0,0,0,.24.5.5,0,0,0,0,.17.42.42,0,0,0,0,.16.49.49,0,0,0,0,.17.32.32,0,0,0,.29.39s.1.05.15.05.27-.14.31-.32a.33.33,0,0,0,.1-.14c0,.13.08.24.29.29.05,0,.1.05.15.05s.27-.15.31-.33.15-.45.23-.65c1.49-5.68,3.23-11.26,5-16.9l1.84-5.83c0-.09.07-.18.1-.27a.58.58,0,0,1,.54-.2c.2,0,.26-.1.24-.23s0,0,0,0a.21.21,0,0,0,.06-.35.27.27,0,0,0-.06-.2.25.25,0,0,0-.1-.24.94.94,0,0,1-.17-.18,1.89,1.89,0,0,1,.15-.6c1.08-3.28,2.15-6.5,3.23-9.73a88,88,0,0,1,5.14-12.44c.31-.57.64-1.14,1-1.7a.2.2,0,0,0,0-.08l.1-.17C203.59,343,203.7,342.75,203.56,342.56ZM151.2,354.12a2.43,2.43,0,0,0,0,.27c0,.08,0,.16,0,.23a3.33,3.33,0,0,0,.32,1.38,1.84,1.84,0,0,1-.66-.78,2.07,2.07,0,0,1,0-.37,2.65,2.65,0,0,1,0-.27,8.27,8.27,0,0,1,.56-1.92,6.31,6.31,0,0,0-.15.73A3.63,3.63,0,0,0,151.2,354.12Zm5.36,37.46c-.41,1-.87,2-1.36,3Zm15.87-45.47c0-.31,0-.63,0-.94a11.09,11.09,0,0,0-.08-1.82,7.07,7.07,0,0,0-.47-1.94,4.66,4.66,0,0,1,.76,2.57A16.72,16.72,0,0,1,172.43,346.11Zm-21.3,10.43.11.11Zm.77-.31-.05,0a1.28,1.28,0,0,1-.14-.21C151.76,356.08,151.84,356.15,151.9,356.23Zm6.28,33.49a17.67,17.67,0,0,0,.51-2.89c.08-.16.15-.33.22-.49a1.18,1.18,0,0,1,0,.2A14.92,14.92,0,0,1,158.18,389.72Z" transform="translate(-23.83 -316.51)"/><path class="cls-2" d="M203.56,342.79a2.24,2.24,0,0,0-.19-.48.3.3,0,0,0-.21-.06c-.15,0-.31.21-.41.31l0,.05h0a.36.36,0,0,0-.06-.2.3.3,0,0,0-.34-.34c-.15,0-.31.2-.41.31-2.3,2.76-4.61,8.81-5.84,12.13-1.43,4.05-2.71,8.15-4,12.24-.21.62-.26.82-.67.82-.1,0-.26-.05-.46-.05a29.62,29.62,0,0,0-3-.2,127.82,127.82,0,0,0-21.76,1.54c.65-1.75,1.3-3.45,2-5.2a135,135,0,0,0,4.35-13,18.75,18.75,0,0,0,.77-6.91,7,7,0,0,0-.47-1.94,1,1,0,0,0-.06-.18,3.84,3.84,0,0,0-3.31-2.69,5,5,0,0,0-1.55-.24c-5.94,0-16.49,8.24-17.46,14.7a3.65,3.65,0,0,0,0,.66,2,2,0,0,0,0,.35c0,.07,0,.15,0,.22s0,.06,0,.09h0c0,.08,0,.16,0,.23a3.27,3.27,0,0,0,2.44,3.16,9.89,9.89,0,0,0,2.16.21c.1,0,.29,0,.35-.15l.49,0c.11,0,.31,0,.36-.15a.14.14,0,0,0,0-.07l0,0v0a.19.19,0,0,0,.13-.13.2.2,0,0,0-.08-.17l0,0a.23.23,0,0,0-.09-.18l0,0c0-.2-.21-.25-.36-.25l-.52,0a.34.34,0,0,0-.33-.17,3.26,3.26,0,0,1-.67,0c-.37,0-.76-.05-1.15-.1h-.05a2.17,2.17,0,0,1-1.37-1.15,3,3,0,0,1,0-1,9.45,9.45,0,0,1,1-2.81c2.71-5,9.58-10.46,14.69-11.46.24,0,.49-.05.72-.05,2.29,0,3.62,1.36,3.75,3.82a22.78,22.78,0,0,1-1.19,5.86c-2.05,6.35-4.46,12.54-6.92,18.79a1.06,1.06,0,0,1-.82.72c-3.12.67-13.77,3.79-15.67,6.25a.9.9,0,0,0-.29.8s0,0,0,.06a1,1,0,0,0,0,.25s0,.08,0,.13,0,.1,0,.15,0,0,0,0,0,.11,0,.16a.77.77,0,0,0,.61.8,6.06,6.06,0,0,0,.92.2c.72.06,1.49.06,2.2.11l2.41.3a6.84,6.84,0,0,1,4.45,3,3.84,3.84,0,0,0-.18-.35l.18.25a5.61,5.61,0,0,0-.53-.9,7.1,7.1,0,0,1,.53.67c0-.07-.07-.13-.1-.19l.11.13-.07-.12.06.08h0l.14.18c-.07-.14-.14-.26-.21-.38a1.33,1.33,0,0,1,.14.19c-.07-.15-.15-.28-.23-.42l.17.21-.09-.16.09.11-.08-.14c.07.09.14.17.21.27-.07-.14-.14-.26-.21-.38l.14.18a4,4,0,0,0-.23-.41l.17.21c-.06-.13-.14-.25-.2-.37a8.34,8.34,0,0,1,1,1.22c-.05-.12-.12-.23-.18-.35l.18.25a5.58,5.58,0,0,0-.73-1.18,8.12,8.12,0,0,1,.74.89l-.08-.13.21.26-.21-.38a1.33,1.33,0,0,1,.14.19c-.07-.15-.15-.28-.23-.42l.17.21a6.18,6.18,0,0,0-4.56-3.43l-.3-.05-.55-.14a36.52,36.52,0,0,0-4.15-.44l.18-.1c4-2.51,9-3.93,13.57-5.07-1.33,3.17-2.62,6.39-4,9.56a1.23,1.23,0,0,0-.23-.33c0,.08.05.15.07.22h0c0,.06.05.13.07.2h0l0,.1a1.19,1.19,0,0,0-.16-.23c0,.12.08.24.12.36a.64.64,0,0,1,0,.07.76.76,0,0,0-.11-.14l.07.19-.07-.09.06.14a.22.22,0,0,1-.19.13c-.2,0-.2-.25-.3-.41a2.2,2.2,0,0,0-.41-.71c0,.07.05.14.07.22v0c0,.07.05.14.07.2h0l0,.09a1.12,1.12,0,0,0-.16-.22l0,.1,0,0,.07.22h0l.07.19h0a0,0,0,0,0,0,0,1,1,0,0,0-.15-.2l0,.07,0,0s0,.08,0,.13a.18.18,0,0,0,0-.07l.15.43a.7.7,0,0,0-.15-.2c0,.06,0,.12.07.19a.31.31,0,0,0-.07-.09,10.27,10.27,0,0,0,.42,1.07.08.08,0,0,0,0,0,1.11,1.11,0,0,1-.07.16c-2,4.71-4.09,9.48-6.14,14.19-.67,1.53-1.43,3-2,4.61a1.13,1.13,0,0,0,0,.51s0,0,0,.05a1.93,1.93,0,0,0,0,.24c0,.06,0,.11,0,.16a1.77,1.77,0,0,0,0,.23s0,.06,0,.09a.89.89,0,0,0,.42.87.39.39,0,0,0,.21,0,.6.6,0,0,0,.47-.32.79.79,0,0,0,.17.14.34.34,0,0,0,.21.06c.3,0,.46-.31.61-.52a37.39,37.39,0,0,0,4.36-6.61,44.22,44.22,0,0,0,2-4.24,18.29,18.29,0,0,0,1.48-7.22,1.89,1.89,0,0,1,.16-.77c1.89-4.36,3.69-8.71,5.38-13.11,0,0,0,0,0-.05a.91.91,0,0,1,.66-.42c1.64-.34,3.29-.63,5-.89A110.55,110.55,0,0,1,186.69,369c1.23,0,2.51.05,3.79.15a1.7,1.7,0,0,1,.77.15h0c-1,3.18-1.95,6.3-2.92,9.48-1.28,4.3-2.51,8.7-3.64,13.06a1.93,1.93,0,0,0-.07.65s0,0,0,.06a.53.53,0,0,0,0,.25.49.49,0,0,0,0,.17.38.38,0,0,0,0,.15.5.5,0,0,0,0,.17.32.32,0,0,0,.29.4s.1.05.15.05.27-.15.31-.33a.24.24,0,0,0,.1-.14c0,.13.08.24.29.29.05,0,.1.05.15.05s.27-.15.31-.32.15-.45.23-.65c1.49-5.69,3.23-11.27,5-16.9l1.84-5.84c0-.09.07-.18.1-.26a.54.54,0,0,1,.54-.2c.2,0,.26-.11.24-.24s0,0,0,0a.21.21,0,0,0,.06-.35,3.14,3.14,0,0,0-.16-.44.94.94,0,0,1-.17-.18,1.9,1.9,0,0,1,.15-.59c1.08-3.28,2.15-6.51,3.23-9.74a87.35,87.35,0,0,1,5.14-12.43c.31-.58.64-1.14,1-1.7a.36.36,0,0,0,0-.09l.1-.17C203.59,343.2,203.7,343,203.56,342.79ZM151.2,354.36a2.43,2.43,0,0,0,0,.27c0,.07,0,.15,0,.22a3.33,3.33,0,0,0,.32,1.38,1.87,1.87,0,0,1-.66-.77,2.35,2.35,0,0,1,0-.37,2.45,2.45,0,0,1,0-.27,8.35,8.35,0,0,1,.56-1.93,6.77,6.77,0,0,0-.15.73A3.73,3.73,0,0,0,151.2,354.36Zm5.36,37.45c-.41,1-.87,2-1.36,3C155.65,393.82,156.11,392.81,156.56,391.81Zm15.87-45.46c0-.32,0-.63,0-1a11.14,11.14,0,0,0-.08-1.82,7.17,7.17,0,0,0-.47-1.94,4.68,4.68,0,0,1,.76,2.57A17.09,17.09,0,0,1,172.43,346.35Zm-21.3,10.42.11.11A1.14,1.14,0,0,1,151.13,356.77Zm.77-.3-.05,0a1,1,0,0,1-.14-.21A2.23,2.23,0,0,0,151.9,356.47ZM158.18,390a17.55,17.55,0,0,0,.51-2.88c.08-.17.15-.33.22-.5a1.42,1.42,0,0,1,0,.2A14.78,14.78,0,0,1,158.18,390Z" transform="translate(-23.83 -316.51)"/><path class="cls-2" d="M299.71,368.92a.68.68,0,0,0-.11-.45c-.09-.11-.17-.23-.25-.23s-.48.56-.73.67c-4.55,3.55-9,7.1-13.89,9.76a8.34,8.34,0,0,1-4.47,1.44,2.52,2.52,0,0,1-2.68-1.89q-.07-.42-.12-.9a40.63,40.63,0,0,1,.25-6.33,6.8,6.8,0,0,0-.13-2.13,2.73,2.73,0,0,0-.1-.41,2,2,0,0,0-.3-.87,1.9,1.9,0,0,1-.23-.41,6.53,6.53,0,0,1,.11-1.17,6,6,0,0,0-.13-2.23c0-.14-.07-.27-.1-.41-.28-1.72-1.32-2.88-2.74-2.88a1.69,1.69,0,0,0-.73.11c-3.2,1.2-6.79,5.89-9.32,10.8-3.16,2.76-9.81,7.5-12.94,7.5a3,3,0,0,1-1-.11,2.17,2.17,0,0,1-1.82-1.48c0-.15-.06-.26-.08-.42-.16-.9-.16-1.89-.32-2.89-.08-.45-.16-.84-.26-1.2,0-.13,0-.25-.08-.37-.43-2-1.1-2.85-2-2.85a3.44,3.44,0,0,0-1.79.67,2.41,2.41,0,0,0-.73.45,31.9,31.9,0,0,0-4.79,4.43c-.45.43-.85,1-1.35,1.44v0a45.75,45.75,0,0,0,2-8.87,10.14,10.14,0,0,0-.24-3.94l-.09-.38a6.93,6.93,0,0,0-1-2.43c-.08-.22-.25-.55-.49-.55-.08,0-.16.11-.33.22s-.1.37,0,.61c-.13.15-.09.37,0,.6a.37.37,0,0,0-.08.37,1.48,1.48,0,0,0,.24.84,2.77,2.77,0,0,1,.51,1.34c0,.08,0,.15,0,.23a42.41,42.41,0,0,1-.83,4.28l-.06.05c-4.55,3.55-9,7.1-13.89,9.76a8.34,8.34,0,0,1-4.47,1.44,2.51,2.51,0,0,1-2.68-1.89q-.08-.42-.12-.9a40.63,40.63,0,0,1,.25-6.33,6.8,6.8,0,0,0-.14-2.13,2.13,2.13,0,0,0-.1-.42,1.74,1.74,0,0,0-.3-.86,2.37,2.37,0,0,1-.22-.41A6.53,6.53,0,0,1,215,366a6.22,6.22,0,0,0-.13-2.23c0-.14-.07-.27-.11-.41-.27-1.72-1.31-2.88-2.73-2.88a1.67,1.67,0,0,0-.73.11c-5,1.89-11.05,12.43-12.35,18.86a8.33,8.33,0,0,0-.16,2,3.74,3.74,0,0,0,0,.58,4.78,4.78,0,0,0,0,.53,4.43,4.43,0,0,0,.42,1.95c.33.78.73,1.11,1.22,1.11.89,0,2.19-1.44,2.76-2.22,2.44-2.77,4.55-6,6.91-8.87a36.45,36.45,0,0,1,3.65-4.21c.16-.22.41-.56.65-.56.08,0,.16.11.24.11a.27.27,0,0,1,0,.11c-.08,1-.22,2-.21,3,0,.2,0,.39,0,.59v.28a7.37,7.37,0,0,0,0,.94,13.1,13.1,0,0,0,.65,4.77c.82,2.66,1.79,3.22,3.82,3.22,3.93-.2,12.59-7.15,16.85-10.72-.83,2.85-1.8,5.65-2.71,8.19a21.27,21.27,0,0,0-.65,2.11,2.18,2.18,0,0,0,0,.76,2.9,2.9,0,0,0,0,.59,2.72,2.72,0,0,0,0,.49,1.65,1.65,0,0,0,.52,1.35.4.4,0,0,0,.33.11c.32,0,.48-.55.65-.88,2.19-3.78,7.8-11.32,11.45-12.54a1.23,1.23,0,0,1,.57-.11c.65,0,.89.55,1.06,1.67.24,3.66.89,7.76,4.3,7.76a2.67,2.67,0,0,0,1-.12c2.28-.55,6.75-3.44,10-5.93a26,26,0,0,0-1.19,4,8.33,8.33,0,0,0-.16,2,5.61,5.61,0,0,0,0,.58c0,.18,0,.36,0,.53a4.57,4.57,0,0,0,.42,1.95c.33.78.73,1.11,1.22,1.11.89,0,2.19-1.44,2.76-2.22,2.44-2.77,4.55-6,6.91-8.87a38.48,38.48,0,0,1,3.65-4.21c.17-.22.41-.56.65-.56.08,0,.17.11.25.11a.49.49,0,0,1,0,.11c-.08,1-.22,2-.21,3,0,.2,0,.39,0,.59v.28a7.37,7.37,0,0,0,0,.94,13.32,13.32,0,0,0,.65,4.77c.82,2.66,1.79,3.22,3.82,3.22,4.31-.22,14.3-8.54,17.95-11.65.28-.19.84-.46.76-.94a.6.6,0,0,0,.11-.8A.69.69,0,0,0,299.71,368.92ZM200.62,382c.29-.79.58-1.69.88-2.58,2.17-5.05,7-13.85,11.42-15.05a.67.67,0,0,1,.65.29c-.14,1.2-.41,3.35-.73,3.61-3.33,3.66-6.42,7.77-9.67,11.43a15.4,15.4,0,0,1-2.27,2.11.45.45,0,0,1-.28.2Zm62.06,0c.29-.79.59-1.69.88-2.58,2.17-5.05,7-13.85,11.42-15.05.35,0,.55.1.65.28-.14,1.21-.4,3.36-.73,3.62-3.33,3.66-6.41,7.77-9.67,11.43a15.4,15.4,0,0,1-2.27,2.11.45.45,0,0,1-.28.2Z" transform="translate(-23.83 -316.51)"/><path class="cls-2" d="M128.07,361.91c-4.95,11.68-20.78,12.27-25,12.79,12.63,5,21.25,16.42,17,24.6-1.54,3-3.15,2.52-5.9,2-.62-.12-3.57.08-2.41,3,1.31,3.27,3,5.84-4.48,6.9-21.66,3.07-26.85-16.54-27.81-20.86-2.75,9.53-5.41,15.4-12.45,19.39-9.2,5.21-23.83,1.88-22.16-2.27,2.31-5.78-.42-6.82-4.16-3.91-4.21,3.29-8.14-15.43,11.8-28.37C50.21,374.88,41,376,33,370.55c-6.15-4.25-11.58-16.68-5.59-18,3.74-.76,7.87-2.82,3-5.26-.92-.47-3.83-.83-1.6-4.21,2.77-4.21,17.78-6.71,34.91,7.76C61,342.26,54.49,325.72,72.61,318c3.73-1.59,4.91.69,6,4.35,1,2.22,3.27,2.1,4.27.44,1.39-2.31.55-7,7.41-3.27,14,7.62,3.74,28.87,2.88,30.92,5.06-4.65,13.25-9,20.29-9.09,7,.31,13.91,5,10.09,8.54-3.88,5.41.33,4,.9,4S132.31,351.91,128.07,361.91Z" transform="translate(-23.83 -316.51)"/><path class="cls-1" d="M129.18,362.38a17.18,17.18,0,0,1-4.73,6.25,23.36,23.36,0,0,1-6.62,3.94,38.45,38.45,0,0,1-7.3,2c-2.47.45-5,.69-7.4.93l.21-1.6h0a45.62,45.62,0,0,1,10.16,6.41,32.38,32.38,0,0,1,4.19,4.33,26.89,26.89,0,0,1,1.74,2.48,18.39,18.39,0,0,1,1.34,2.75c1.55,3.73,1.6,8.55-1.7,11.87a3.63,3.63,0,0,1-1.73.67,7.13,7.13,0,0,1-1.68-.05c-.52-.07-1-.16-1.49-.25a2.33,2.33,0,0,0-1.07.09c-.7.28-.83.51-.66,1.26a4.37,4.37,0,0,0,.2.57l.28.68c.2.45.4.92.58,1.43a5.67,5.67,0,0,1,.34,1.75,3,3,0,0,1-.68,2,4.68,4.68,0,0,1-.72.69,8.69,8.69,0,0,1-.77.46l-.78.35-.77.25a19.57,19.57,0,0,1-3,.63c-1,.13-2,.24-3,.28a24,24,0,0,1-12-2.34,23.1,23.1,0,0,1-9-8.39,32.34,32.34,0,0,1-4.35-11.32l1.62.05h0A49.22,49.22,0,0,1,76.21,402a21.72,21.72,0,0,1-3.69,5.07,22.2,22.2,0,0,1-5,3.78,23.71,23.71,0,0,1-12.13,2.69,25.47,25.47,0,0,1-6.18-.88,13.67,13.67,0,0,1-3-1.23,7.52,7.52,0,0,1-1.41-1,3.49,3.49,0,0,1-1-1.83,1.94,1.94,0,0,1,0-.59,1.8,1.8,0,0,1,.1-.57,6.47,6.47,0,0,1,.28-.79,13.44,13.44,0,0,0,.44-1.31,3.52,3.52,0,0,0,.08-2.21c-.1-.17-.21-.24-.53-.27a3.14,3.14,0,0,0-1.11.24,9,9,0,0,0-1.18.63l-.58.4-.39.25a1.52,1.52,0,0,1-.5.22,1.75,1.75,0,0,1-.57.09,1.6,1.6,0,0,1-.58-.07,2.19,2.19,0,0,1-.94-.55,4.14,4.14,0,0,1-1-1.5,10.56,10.56,0,0,1-.63-3.13,19.17,19.17,0,0,1,.74-6.1,25.63,25.63,0,0,1,2.33-5.62,30.54,30.54,0,0,1,3.4-5,43.27,43.27,0,0,1,4.18-4.38c1.5-1.36,3.09-2.6,4.72-3.81h0l.35,1.53c-.86,0-1.92,0-2.92,0s-2,0-3.06-.06a32.94,32.94,0,0,1-6.13-.94,24.68,24.68,0,0,1-5.82-2.3c-.47-.24-.91-.53-1.35-.81a13.53,13.53,0,0,1-1.33-.9,16.79,16.79,0,0,1-2.33-2.2,25.86,25.86,0,0,1-3.52-5.18,18.69,18.69,0,0,1-2-6,7.05,7.05,0,0,1,.31-3.46,4,4,0,0,1,1.14-1.61,4.14,4.14,0,0,1,1.75-.85,18.07,18.07,0,0,0,2.75-.77,6.6,6.6,0,0,0,1.19-.59,1.85,1.85,0,0,0,.7-.65c.06-.14.05-.22-.13-.5a4.14,4.14,0,0,0-.93-.77l-.59-.34c-.12-.06-.38-.16-.62-.25a4.39,4.39,0,0,1-1.58-1,2.41,2.41,0,0,1-.58-2.07,4.92,4.92,0,0,1,.66-1.65,7.51,7.51,0,0,1,1.09-1.35l.67-.5a2.87,2.87,0,0,1,.7-.43c3.9-2,8.21-1.88,12.21-1.24a38.87,38.87,0,0,1,11.5,4,67.43,67.43,0,0,1,10.18,6.65h0l-1.34.89a40.3,40.3,0,0,0-1.48-5.79A60,60,0,0,1,60,339.51a26.44,26.44,0,0,1-.58-6.11,17,17,0,0,1,1.25-6.17,16.37,16.37,0,0,1,1.51-2.83,17.86,17.86,0,0,1,2-2.45,20.65,20.65,0,0,1,5.12-3.63c.91-.48,1.87-.87,2.81-1.27a5.73,5.73,0,0,1,3.54-.41,3.62,3.62,0,0,1,1.67,1.05,5.62,5.62,0,0,1,1,1.46,18,18,0,0,1,1,3l0-.12A1.81,1.81,0,0,0,81,323.27a1.6,1.6,0,0,0,1-.42,2.9,2.9,0,0,0,.68-1.07,15.73,15.73,0,0,1,1.25-3,2.58,2.58,0,0,1,1.59-1.13,3.44,3.44,0,0,1,.95-.09c.3,0,.58.07.88.11a13.19,13.19,0,0,1,3,1.24c.48.24.93.55,1.39.83s.89.63,1.32,1a13.93,13.93,0,0,1,3.9,5.21c1.75,4.05,1.73,8.57,1.09,12.78a47.31,47.31,0,0,1-1.52,6.24,26.56,26.56,0,0,1-2.55,5.82v0l-1.34-.94a52.45,52.45,0,0,1,8.28-5.43,33.39,33.39,0,0,1,9.3-3.36,15.75,15.75,0,0,1,5-.21,18.56,18.56,0,0,1,4.89,1.27,11.23,11.23,0,0,1,4.32,2.93,4.19,4.19,0,0,1,1.1,2.78,4.08,4.08,0,0,1-1.34,2.77l.12-.14a14.21,14.21,0,0,0-1.11,1.88,2.46,2.46,0,0,0-.17.44.83.83,0,0,0-.08.35c0,.11,0,.08,0,0s-.08-.08-.09-.11a.05.05,0,0,0,0,0h0a2.14,2.14,0,0,0,.69,0l.56-.1.22,0h.16s0,0,0,0h0l.14,0a8.17,8.17,0,0,1,2.71,0,4.19,4.19,0,0,1,1.48.58,3.48,3.48,0,0,1,1.16,1.25,5.33,5.33,0,0,1,.52,2.93A17.77,17.77,0,0,1,129.18,362.38Zm-2.22-.94a16.13,16.13,0,0,0,1.26-4.15,3.28,3.28,0,0,0-.2-1.67,1.51,1.51,0,0,0-1.11-.76,5.76,5.76,0,0,0-2,0l-.56.05-.6.09a3.85,3.85,0,0,1-1.65-.09l-.26-.11-.3-.2a1.61,1.61,0,0,1-.46-.56,2,2,0,0,1-.17-1.13,3.11,3.11,0,0,1,.2-.8,6.45,6.45,0,0,1,.28-.64,15,15,0,0,1,1.36-2.14l.06-.08.07-.06a2.28,2.28,0,0,0,.83-1.45,2.56,2.56,0,0,0-.64-1.65,9.7,9.7,0,0,0-3.6-2.58,17.72,17.72,0,0,0-4.47-1.33,14.2,14.2,0,0,0-4.64.1,29.71,29.71,0,0,0-9,3.1,30.4,30.4,0,0,0-7.67,5.67l-2.32,2.42,1-3.36v0c.63-2,1.35-3.91,2-5.86a43.38,43.38,0,0,0,1.64-5.9c.84-4,1.07-8.17-.34-11.94a12.69,12.69,0,0,0-3.43-4.83c-.4-.3-.78-.62-1.2-.9s-.85-.54-1.31-.77a12.61,12.61,0,0,0-2.76-1.1c-.94-.2-1.75-.07-2.15.66a17.71,17.71,0,0,0-1,2.82,4.18,4.18,0,0,1-.94,1.59,3,3,0,0,1-1.82.89,2.94,2.94,0,0,1-2-.56,4.16,4.16,0,0,1-1.23-1.5l0,0,0-.08a16.14,16.14,0,0,0-1-2.61,2.55,2.55,0,0,0-1.55-1.46A3.85,3.85,0,0,0,73,319c-.86.42-1.71.85-2.52,1.35a18.59,18.59,0,0,0-7.55,7.9,20.73,20.73,0,0,0-1.57,11.1,33.37,33.37,0,0,0,3.25,11.31l1.84,3.58-3.17-2.69h0a51.83,51.83,0,0,0-9.67-6.83,35.19,35.19,0,0,0-11.13-3.83l-1.46-.2c-.48,0-1-.06-1.46-.09a25.66,25.66,0,0,0-2.91,0,13.68,13.68,0,0,0-5.45,1.53,2.15,2.15,0,0,0-.57.37l-.52.4a5.34,5.34,0,0,0-.76,1,3.21,3.21,0,0,0-.43,1.12.75.75,0,0,0,.19.72,3,3,0,0,0,1,.53c.24.09.45.15.78.3l.72.39a5.94,5.94,0,0,1,1.4,1.12,2.65,2.65,0,0,1,.52,1l.06.31a1.82,1.82,0,0,1,0,.33,1.71,1.71,0,0,1-.15.62,3.53,3.53,0,0,1-1.34,1.49,9.25,9.25,0,0,1-1.49.78,17.18,17.18,0,0,1-3,.93,2,2,0,0,0-1.46,1.31,5.28,5.28,0,0,0-.14,2.47,16.62,16.62,0,0,0,1.88,5.29,23.23,23.23,0,0,0,3.28,4.69,17.53,17.53,0,0,0,2,1.92,13.77,13.77,0,0,0,1.16.79,13.56,13.56,0,0,0,1.22.73,23.87,23.87,0,0,0,5.31,2.16,31.17,31.17,0,0,0,5.72,1c1,.1,2,.17,2.93.21s2,0,3.1.18l2.38.29-2,1.24h0a34.92,34.92,0,0,0-9,7.46,30.62,30.62,0,0,0-3.3,4.84,23.93,23.93,0,0,0-2.1,5.43,17.54,17.54,0,0,0-.57,5.71,8.34,8.34,0,0,0,.61,2.67,2.75,2.75,0,0,0,.66,1c.27.21.43.24.65.16a.28.28,0,0,0,.18-.09c.08-.06.1,0,.23-.15l.63-.48a12.29,12.29,0,0,1,1.42-.83,4.61,4.61,0,0,1,1.77-.43,1.68,1.68,0,0,1,.54.05,1.36,1.36,0,0,1,.56.18,2,2,0,0,1,.9.79,3.37,3.37,0,0,1,.48,1.93,9.08,9.08,0,0,1-.21,1.68c-.14.51-.27,1-.45,1.53a3.71,3.71,0,0,0-.2.62.23.23,0,0,0,0,.16.26.26,0,0,0,0,.15,1.62,1.62,0,0,0,.48.7,5.56,5.56,0,0,0,1,.68,12.15,12.15,0,0,0,2.56.93,24,24,0,0,0,5.62.68,22.91,22.91,0,0,0,10.9-2.51,20.2,20.2,0,0,0,7.91-7.81,61,61,0,0,0,4.45-10.79h0l.78-3.06.84,3.12a38,38,0,0,0,1.88,5.44,30.79,30.79,0,0,0,2.71,5A21.75,21.75,0,0,0,93,408.14,22,22,0,0,0,104,410.39c1,0,1.9-.11,2.85-.22a20.38,20.38,0,0,0,2.76-.49,4.26,4.26,0,0,0,2.08-1,1,1,0,0,0,.28-.76,3.46,3.46,0,0,0-.21-1.14c-.13-.43-.3-.87-.48-1.33l-.27-.69a5.93,5.93,0,0,1-.26-.84,2.85,2.85,0,0,1,.23-2.07,2.82,2.82,0,0,1,1.69-1.23,3.76,3.76,0,0,1,1.86-.08c.49.1,1,.2,1.42.27a2.94,2.94,0,0,0,2.28-.26,4.76,4.76,0,0,0,1.45-2.07,8.88,8.88,0,0,0,.77-2.62,11.47,11.47,0,0,0-.79-5.5,18.37,18.37,0,0,0-1.2-2.59,23.75,23.75,0,0,0-1.62-2.38,24.66,24.66,0,0,0-1.88-2.21q-1-1-2.13-2a31.67,31.67,0,0,0-10.06-5.7h0l-2.91-1.26,3.11-.35c2.5-.27,4.9-.51,7.28-1a36.14,36.14,0,0,0,6.9-2.07,19.88,19.88,0,0,0,6-3.73A17.73,17.73,0,0,0,127,361.44Z" transform="translate(-23.83 -316.51)"/><path class="cls-1" d="M78.26,367.58a23.84,23.84,0,0,0-.23,3.5c0,1.05,0,2.27.17,3.57a18.49,18.49,0,0,0,.72,4,12.74,12.74,0,0,0,.83,1.87,7.3,7.3,0,0,0,.45.73.54.54,0,0,0,.19.19l0,0s0,0,0-.05,0,0-.13-.15a1.3,1.3,0,0,0-.48-.2.83.83,0,0,0-.35,0,.91.91,0,0,0-.42.13c-.05,0,0,0-.06,0a.21.21,0,0,0-.07,0,.7.7,0,0,1,.1-.16l.24-.39.39-.62c.12-.17.23-.43.22-.32v.1a.94.94,0,0,0,0,.32,1.42,1.42,0,0,0,.46.85,1.56,1.56,0,0,0,.54.32,1.43,1.43,0,0,0,.28.07h.2a1.58,1.58,0,0,0,.4-.06l.13-.07s0,0,0,0a1.11,1.11,0,0,0-.35.15c-.26.15-.5.33-.67.45a1.11,1.11,0,0,1-.34.21c-.07,0-.11,0-.11,0l-1.65.3a2,2,0,0,1-.11-.52,3.07,3.07,0,0,1,.14-1.12,4.87,4.87,0,0,1,.65-1.32,3.49,3.49,0,0,1,.69-.74,1.8,1.8,0,0,1,.34-.23,1.87,1.87,0,0,1,.3-.13,1.73,1.73,0,0,1,.58-.1h.25l.33.08a1.75,1.75,0,0,1,.61.37,1.68,1.68,0,0,1,.54,1,1.81,1.81,0,0,1,0,.51,2,2,0,0,1,0,.29,4.7,4.7,0,0,1-.41,1.19,7.71,7.71,0,0,1-.49.89L82,383c-.13.18-.3.4-.46.59a5,5,0,0,1-.42.36,2.36,2.36,0,0,1-.26.17,2.68,2.68,0,0,1-.42.19,2.12,2.12,0,0,1-.45.11,2.35,2.35,0,0,1-.59,0,1.85,1.85,0,0,1-.92-.39,1.8,1.8,0,0,1-.48-.49l-.17-.24-.09-.19a3.13,3.13,0,0,1-.24-.71,5.46,5.46,0,0,1-.16-1.22c0-.78,0-1.52,0-2.26.07-1.45-.08-2.85-.12-4.18s-.14-2.55-.23-3.6c-.16-2.11-.4-3.52-.4-3.52Z" transform="translate(-23.83 -316.51)"/><path class="cls-1" d="M78.72,367.35s-.24.28-.6.79-.85,1.24-1.42,2.14-1.18,2-1.81,3.12A29,29,0,0,0,73,377.14c-.26.69-.49,1.41-.82,2.12a5.8,5.8,0,0,1-.63,1.08,3.42,3.42,0,0,1-.54.54l-.16.14-.26.14a2,2,0,0,1-.66.24,2,2,0,0,1-1,0,2.48,2.48,0,0,1-.55-.24,2.89,2.89,0,0,1-.37-.31,2.6,2.6,0,0,1-.3-.36,1.25,1.25,0,0,1-.15-.27,2.81,2.81,0,0,1-.22-.51c-.06-.25-.12-.52-.16-.75s0-.29,0-.46c0-.35,0-.67,0-1a5.94,5.94,0,0,1,.15-1.27l.09-.27a2.23,2.23,0,0,1,.24-.45,1.76,1.76,0,0,1,.93-.69,1.7,1.7,0,0,1,.72-.08l.33.07.15.06.08,0a1.68,1.68,0,0,1,.49.34,1.06,1.06,0,0,1,.21.25,1.78,1.78,0,0,1,.21.35,3.84,3.84,0,0,1,.3,1,4.84,4.84,0,0,1,0,1.47,3.34,3.34,0,0,1-.35,1.08,1.69,1.69,0,0,1-.33.41l-1.35-1s0,0-.1,0a1.5,1.5,0,0,1-.22-.34c-.1-.19-.25-.44-.42-.7a1,1,0,0,0-.24-.28s0,0,0,.06.05.14.43.34l.06,0,.13.05a1.27,1.27,0,0,0,.28.06,1.64,1.64,0,0,0,.63-.07,1.47,1.47,0,0,0,.78-.57,1.43,1.43,0,0,0,.16-.27l0-.09c0-.1,0,.18.07.38s.05.48.08.73l.06.45a.58.58,0,0,1,0,.18s0-.06,0-.08,0,0,0,0a.86.86,0,0,0-.14-.18,1,1,0,0,0-.2-.13.74.74,0,0,0-.32-.16,1.27,1.27,0,0,0-.54,0c-.2.06-.15.05-.2.08l0,.05h0a.58.58,0,0,0,.25-.09,4.77,4.77,0,0,0,.77-.43,12.44,12.44,0,0,0,1.66-1.25,13.83,13.83,0,0,0,2.44-3.29A31.76,31.76,0,0,0,76,369.92c.42-1,.73-1.78.92-2.37a8.4,8.4,0,0,0,.27-.94Z" transform="translate(-23.83 -316.51)"/><path class="cls-1" d="M77.33,367a26.55,26.55,0,0,0,2.33,2.62c.74.74,1.63,1.58,2.63,2.42a19.77,19.77,0,0,0,3.33,2.37,15.83,15.83,0,0,0,1.84.85,6.25,6.25,0,0,0,.83.28l.3.05h.06v0s0,0-.11,0a.88.88,0,0,0-.36.13.81.81,0,0,0-.18.19,1.13,1.13,0,0,0-.1.13.58.58,0,0,0,0,.14s0,0,0,0h0l-.15-.67c-.07-.26-.13-.51-.19-.75s-.14-.47-.12-.44l0,.05a.84.84,0,0,0,.19.17,1.2,1.2,0,0,0,.76.22,1.18,1.18,0,0,0,.5-.13,1.25,1.25,0,0,0,.32-.23c.23-.25.2-.32.22-.35s0,0,0,0a1.92,1.92,0,0,0-.1.4,5.25,5.25,0,0,0-.06.82,1.75,1.75,0,0,1,0,.38c0,.05-.06,0-.06.05l-1,1.37a1.8,1.8,0,0,1-.42-.31,3,3,0,0,1-.61-.9,4.79,4.79,0,0,1-.37-1.36,3.82,3.82,0,0,1,0-1,2.43,2.43,0,0,1,.08-.36,1.27,1.27,0,0,1,.11-.27,1.42,1.42,0,0,1,.29-.41,1.39,1.39,0,0,1,.39-.29,1.46,1.46,0,0,1,.59-.15,1.55,1.55,0,0,1,.94.29,2.41,2.41,0,0,1,.32.3l.15.21a5.34,5.34,0,0,1,.5,1.08c.11.32.19.62.27.95l.09.46c0,.21.07.46.09.69a2.77,2.77,0,0,1,0,.49,1.6,1.6,0,0,1,0,.27,2.28,2.28,0,0,1-.15.36,1.51,1.51,0,0,1-.2.35,2.33,2.33,0,0,1-.36.34,1.89,1.89,0,0,1-1.4.33l-.26,0-.18-.06a2.63,2.63,0,0,1-.65-.29,6.22,6.22,0,0,1-1-.67c-.59-.48-1.11-1-1.63-1.51-1-1-2.07-2-3.07-2.84s-1.91-1.69-2.72-2.38c-1.6-1.37-2.77-2.21-2.77-2.21Z" transform="translate(-23.83 -316.51)"/><path class="cls-1" d="M79.26,367.21s-1.36.48-3.28,1.36c-1,.45-2.07,1-3.25,1.57s-2.45,1.2-3.7,1.95c-.63.36-1.27.74-2,1.05a6,6,0,0,1-1.13.41,3,3,0,0,1-.72.11H65l-.26,0a1.83,1.83,0,0,1-.61-.17,1.73,1.73,0,0,1-.71-.54,2.69,2.69,0,0,1-.28-.46,2,2,0,0,1-.1-.4,3.05,3.05,0,0,1-.05-.41,1.84,1.84,0,0,1,0-.28,3.69,3.69,0,0,1,.1-.5c.09-.23.18-.47.27-.66s.15-.28.22-.42a9.19,9.19,0,0,1,.52-.85,4.31,4.31,0,0,1,.78-.92l.21-.16a2.22,2.22,0,0,1,.41-.22,1.59,1.59,0,0,1,1,0,1.64,1.64,0,0,1,.88.72,1.73,1.73,0,0,1,.21.8,2.18,2.18,0,0,1,0,.39,3.87,3.87,0,0,1-.27.93,4.65,4.65,0,0,1-.76,1.21,2.79,2.79,0,0,1-.85.7,3.82,3.82,0,0,1-.49.18L64.74,371s0,0,0-.07a1.42,1.42,0,0,1,.07-.38c0-.21.1-.5.13-.81a2.61,2.61,0,0,0,0-.4s0,0,0,0a.72.72,0,0,0,.13.44,1.1,1.1,0,0,0,.27.33,1.39,1.39,0,0,0,.47.28,1.34,1.34,0,0,0,.85,0l.24-.12.06,0s-.12.19-.21.38l-.38.66-.21.4-.11.19s0,0,0,0,0,0,0-.05a.33.33,0,0,0,0-.17.77.77,0,0,0-.07-.17.75.75,0,0,0-.13-.25.92.92,0,0,0-.34-.24l-.14,0s0,0,0,0h0a1.55,1.55,0,0,0,.29,0,6.71,6.71,0,0,0,.88,0,18.91,18.91,0,0,0,2-.29,17.79,17.79,0,0,0,3.86-1.35c1.2-.54,2.28-1.11,3.19-1.62a23.75,23.75,0,0,0,2.93-1.93Z" transform="translate(-23.83 -316.51)"/><path class="cls-1" d="M76,369a34.79,34.79,0,0,0,1.93-3c.54-.91,1.15-2,1.77-3.14s1.28-2.42,1.9-3.73c.31-.65.64-1.31,1-2a9.44,9.44,0,0,1,.71-1,3.53,3.53,0,0,1,.52-.47l.16-.12.22-.12a1.9,1.9,0,0,1,1.42-.16,2.37,2.37,0,0,1,.46.2,1.87,1.87,0,0,1,.3.26,3.58,3.58,0,0,1,.26.29c.07.1.08.16.13.24a4.32,4.32,0,0,1,.19.45,6,6,0,0,1,.15.68c0,.15,0,.31.07.46,0,.34.06.65.07,1a5,5,0,0,1-.11,1.18c0,.09,0,.15-.08.25a2.07,2.07,0,0,1-.2.39,1.5,1.5,0,0,1-.79.59,1.42,1.42,0,0,1-.6,0,1.25,1.25,0,0,1-.47-.14,1.4,1.4,0,0,1-.41-.29,2.6,2.6,0,0,1-.19-.22,2.37,2.37,0,0,1-.19-.31,3.65,3.65,0,0,1-.32-.9,4.41,4.41,0,0,1-.1-1.41,2.89,2.89,0,0,1,.27-1.06,3.9,3.9,0,0,1,.29-.43l1.36,1s0,0,.07,0a2.28,2.28,0,0,1,.13.35,7,7,0,0,0,.33.76,2.18,2.18,0,0,0,.22.35s0,0,0,0,0-.09-.32-.26a1.64,1.64,0,0,0-.38-.11,1.35,1.35,0,0,0-.51,0,1.12,1.12,0,0,0-.64.46.82.82,0,0,0-.12.22l0,.06s0-.25,0-.46l-.06-.76c0-.15,0-.3,0-.45s0-.16,0-.24,0,0,0,0,0,0,0,0a.4.4,0,0,0,.1.12,1.46,1.46,0,0,0,.13.09.7.7,0,0,0,.23.11.78.78,0,0,0,.37,0l.1,0s0,0,0,0l0,0a1.26,1.26,0,0,0-.26.15,5.23,5.23,0,0,0-.69.54A17.54,17.54,0,0,0,82.82,360a18.37,18.37,0,0,0-2.41,3.31,34.55,34.55,0,0,0-1.68,3.16,21.74,21.74,0,0,0-1.27,3.27Z" transform="translate(-23.83 -316.51)"/><path class="cls-1" d="M76.84,367.77s.08-.34.16-1a23,23,0,0,0,.19-2.54,30.48,30.48,0,0,0-.14-3.58,14.78,14.78,0,0,0-.8-4,11.8,11.8,0,0,0-1-1.84,5.79,5.79,0,0,0-.52-.7l-.11-.12a.31.31,0,0,0-.09,0l0,0a.09.09,0,0,0,0,.07c0,.06,0,0,.16.19a1.29,1.29,0,0,0,.55.24,1.08,1.08,0,0,0,.4,0l.26,0a.88.88,0,0,0,.24-.11c.06,0,0,0,.08,0a.26.26,0,0,0,.1-.07.46.46,0,0,1-.07.14l-.24.38-.39.62c-.11.15-.22.41-.21.25v-.12a1.25,1.25,0,0,0,0-.37,1.64,1.64,0,0,0-.53-1,1.8,1.8,0,0,0-.61-.36,1.63,1.63,0,0,0-.54-.08,1.41,1.41,0,0,0-.45.07.57.57,0,0,0-.15.08c-.06,0-.06,0-.06.06s.21-.05.34-.1l.71-.39c.37-.25.5-.15.53-.15l1.64-.3a1.88,1.88,0,0,1,.14.52,3,3,0,0,1-.09,1.16,4.47,4.47,0,0,1-.62,1.38,3.3,3.3,0,0,1-.69.79,3.71,3.71,0,0,1-.36.24,2.17,2.17,0,0,1-.33.15,1.93,1.93,0,0,1-.63.11,2,2,0,0,1-.64-.1,1.77,1.77,0,0,1-.68-.41,2,2,0,0,1-.62-1.13,2.28,2.28,0,0,1,0-.57,2.15,2.15,0,0,1,0-.31,5.66,5.66,0,0,1,.42-1.26,9,9,0,0,1,.5-.91c.08-.13.16-.26.25-.39s.32-.41.49-.61a3.51,3.51,0,0,1,.45-.39,2.51,2.51,0,0,1,.27-.18,3.76,3.76,0,0,1,.46-.2,2.51,2.51,0,0,1,.49-.12,2.76,2.76,0,0,1,.64,0,2.2,2.2,0,0,1,1,.43,1.75,1.75,0,0,1,.51.53,1.84,1.84,0,0,1,.17.25l.1.2c0,.13.11.28.15.41l.08.34a5.58,5.58,0,0,1,.09,1.26c0,.79-.11,1.54-.18,2.28a32.16,32.16,0,0,0,0,4.18c0,1.32.16,2.55.26,3.6s.23,1.93.34,2.54.19,1,.19,1Z" transform="translate(-23.83 -316.51)"/><path class="cls-1" d="M76.44,367.9l1-.21c.6-.13,1.46-.35,2.49-.59s2.23-.55,3.5-.91,2.6-.85,4-1.28c.69-.21,1.38-.43,2.12-.58a6,6,0,0,1,1.16-.16,3.33,3.33,0,0,1,.69,0,2.26,2.26,0,0,1,.93.35,1.54,1.54,0,0,1,.53.59,2.26,2.26,0,0,1,.17.43,1.54,1.54,0,0,1,0,.37,2.19,2.19,0,0,1,0,.36c0,.12,0,.16-.07.25a3.25,3.25,0,0,1-.18.43c-.11.19-.24.4-.36.57l-.28.36c-.22.26-.41.51-.64.74a4.49,4.49,0,0,1-.88.74l-.21.12a1.5,1.5,0,0,1-.39.12,1.25,1.25,0,0,1-.88-.13,1.29,1.29,0,0,1-.43-.35,1.38,1.38,0,0,1-.21-.39,1.55,1.55,0,0,1-.06-.73,1.71,1.71,0,0,1,.08-.34,3.81,3.81,0,0,1,.38-.85,4.93,4.93,0,0,1,.88-1.07,2.66,2.66,0,0,1,.91-.58,1.56,1.56,0,0,1,.5-.11l.26,1.65s0,0,0,0a2.86,2.86,0,0,1-.18.32,5.72,5.72,0,0,0-.36.77,2.57,2.57,0,0,0-.11.41s0,0,0,0a.71.71,0,0,0,0-.35,1.45,1.45,0,0,0-.17-.31,1.32,1.32,0,0,0-.35-.29,1.06,1.06,0,0,0-.7-.12l-.21.06,0,0s.19-.19.33-.36.34-.38.51-.59l.44-.57h0s0,0,0,0a.5.5,0,0,0,0,.12.61.61,0,0,0,0,.13.52.52,0,0,0,.07.21.81.81,0,0,0,.22.23c.18.09,0-.07-.31-.08a7,7,0,0,0-.88-.09,19.8,19.8,0,0,0-2,.05,27.46,27.46,0,0,0-4,.66c-1.26.33-2.41.76-3.4,1.1s-1.8.7-2.36.95-.87.41-.87.41Z" transform="translate(-23.83 -316.51)"/><path class="cls-1" d="M77.61,369a8.58,8.58,0,0,0-.56-.85,19.72,19.72,0,0,0-1.7-2,24.56,24.56,0,0,0-2.74-2.48c-1.08-.82-2.22-1.71-3.42-2.48-.6-.38-1.21-.75-1.82-1.06a6,6,0,0,0-.89-.37c-.27-.1-.59-.15-.62-.1s.2,0,.32-.16.08-.12.1-.06.13.38.23.68a5.74,5.74,0,0,0,.63,1.35c0,.05.1.09,0,0a.93.93,0,0,0-.54-.33,1.36,1.36,0,0,0-.77,0,1.28,1.28,0,0,0-.45.29c-.27.32-.2.29-.24.29a.39.39,0,0,1,0-.12,1.73,1.73,0,0,0-.22-.57c-.08-.11-.14-.07-.08.06a.72.72,0,0,0,.19.23l2.14-3.1.18.15a2.68,2.68,0,0,1,.38.45,3.15,3.15,0,0,1,.51,1.39,5.14,5.14,0,0,1,0,1.69c0,.17-.08.35-.15.56a2.35,2.35,0,0,1-.54.94,1.67,1.67,0,0,1-.6.39,1.59,1.59,0,0,1-1,.05,1.63,1.63,0,0,1-.84-.55,2.45,2.45,0,0,1-.38-.69,9.57,9.57,0,0,1-.4-2,6.52,6.52,0,0,1-.07-1.2,1.87,1.87,0,0,1,.34-1,1.45,1.45,0,0,1,1.2-.57,2.83,2.83,0,0,1,1.36.44,11.51,11.51,0,0,1,1,.62c.61.44,1.18.91,1.74,1.4,1.1,1,2.18,1.95,3.15,2.9S75,365,75.8,365.71s1.58,1.22,2.11,1.59.87.55.87.55Z" transform="translate(-23.83 -316.51)"/><path class="cls-3" d="M66.57,359.64a.51.51,0,1,1-.51-.53A.53.53,0,0,1,66.57,359.64Z" transform="translate(-23.83 -316.51)"/><path class="cls-1" d="M67.25,361.59c0,.23-.13.42-.29.42s-.29-.19-.29-.42.13-.42.29-.42S67.25,361.36,67.25,361.59Z" transform="translate(-23.83 -316.51)"/><path class="cls-1" d="M65.45,360.88c0,.23-.08.42-.18.42s-.18-.19-.18-.42.08-.41.18-.41S65.45,360.65,65.45,360.88Z" transform="translate(-23.83 -316.51)"/><path class="cls-1" d="M73.11,354.21c0-.19.26-.33.58-.33s.59.14.59.33-.27.33-.59.33S73.11,354.39,73.11,354.21Z" transform="translate(-23.83 -316.51)"/><path class="cls-1" d="M65,369.48a.44.44,0,1,1,.43.42A.43.43,0,0,1,65,369.48Z" transform="translate(-23.83 -316.51)"/><path class="cls-1" d="M68,377.45a.54.54,0,0,1,.5-.56.56.56,0,0,1,0,1.12A.54.54,0,0,1,68,377.45Z" transform="translate(-23.83 -316.51)"/><path class="cls-1" d="M82.07,381c0-.28-.13-.51-.28-.51s-.28.23-.28.51.12.51.28.51S82.07,381.29,82.07,381Z" transform="translate(-23.83 -316.51)"/><path class="cls-1" d="M82.36,368c0,.06.37,0,.45,0C82.71,367.91,82.25,368,82.36,368Z" transform="translate(-23.83 -316.51)"/><polygon class="cls-1" points="57.53 50.76 57.7 50.75 57.28 50.72 57.53 50.76"/><path class="cls-1" d="M81.21,366.63c-.65.26.18.19,0,.37l-.15.05.56-.06C81.46,366.85,81.05,366.78,81.21,366.63Z" transform="translate(-23.83 -316.51)"/><path class="cls-1" d="M82.51,365.73c-.25.13-.25,0-.05.13l.06,0A.12.12,0,0,1,82.51,365.73Z" transform="translate(-23.83 -316.51)"/><path class="cls-1" d="M82.52,365.82c0,.08.19-.14,0,0Z" transform="translate(-23.83 -316.51)"/><path class="cls-1" d="M82.21,365.5h.28c.13-.09.12-.2.24-.21C82.55,365.22,82.42,365.32,82.21,365.5Z" transform="translate(-23.83 -316.51)"/><path class="cls-1" d="M81.7,365.62h.12C81.88,365.59,81.89,365.56,81.7,365.62Z" transform="translate(-23.83 -316.51)"/><path class="cls-1" d="M82.07,365.64l-.25,0c-.09.07-.3.16.1,0C81.73,365.72,81.92,365.66,82.07,365.64Z" transform="translate(-23.83 -316.51)"/><path class="cls-1" d="M82,365.75a.49.49,0,0,1-.44.22C81.73,366.12,82.18,365.91,82,365.75Z" transform="translate(-23.83 -316.51)"/><path class="cls-1" d="M80.51,366.82l-.18.11.24,0C80.45,366.92,80.72,366.75,80.51,366.82Z" transform="translate(-23.83 -316.51)"/><path class="cls-1" d="M82.17,364.65c-.13.08-.32.25-.48.36l.19,0A1,1,0,0,1,82.17,364.65Z" transform="translate(-23.83 -316.51)"/><path class="cls-1" d="M81.69,365l-.27,0C81.44,365.15,81.56,365.1,81.69,365Z" transform="translate(-23.83 -316.51)"/><path class="cls-1" d="M81,366l.56-.07h-.29l-.29,0Z" transform="translate(-23.83 -316.51)"/><polygon class="cls-1" points="58.05 47.7 58.38 47.56 57.87 47.76 58.05 47.7"/><path class="cls-1" d="M81.61,364c.26-.14.32-.38.5-.44-.11-.05-.35,0-.56.14C81.69,363.65,81.72,363.74,81.61,364Z" transform="translate(-23.83 -316.51)"/><path class="cls-1" d="M81.23,363.8l.32-.12A.86.86,0,0,0,81.23,363.8Z" transform="translate(-23.83 -316.51)"/><path class="cls-1" d="M81.36,364.82a.91.91,0,0,0,.29-.32l-.31.28Z" transform="translate(-23.83 -316.51)"/><path class="cls-1" d="M81.33,364.79h0l0-.09A.37.37,0,0,1,81.33,364.79Z" transform="translate(-23.83 -316.51)"/><path class="cls-1" d="M81.37,364.84v0S81.32,364.86,81.37,364.84Z" transform="translate(-23.83 -316.51)"/><path class="cls-1" d="M81.2,365.52a1.26,1.26,0,0,0-.76.37A4.49,4.49,0,0,1,81.2,365.52Z" transform="translate(-23.83 -316.51)"/><path class="cls-1" d="M81,365.18l0,.15a1.38,1.38,0,0,1,.33-.2Z" transform="translate(-23.83 -316.51)"/><polygon class="cls-1" points="57 48.7 57.14 48.67 57.15 48.62 57 48.7"/><path class="cls-1" d="M81.1,364.25c-.18.07-.23,0-.29,0a.33.33,0,0,0,0,.25C81,364.43,81.16,364.3,81.1,364.25Z" transform="translate(-23.83 -316.51)"/><path class="cls-1" d="M81.19,364.54h0S81.13,364.58,81.19,364.54Z" transform="translate(-23.83 -316.51)"/><path class="cls-1" d="M80.32,363.8l0,.07,0-.06Z" transform="translate(-23.83 -316.51)"/><path class="cls-1" d="M80.8,364.57c0,.09.07.05.19,0a.29.29,0,0,1-.14-.05S80.78,364.57,80.8,364.57Z" transform="translate(-23.83 -316.51)"/><path class="cls-1" d="M81,363.79c0,.09-.06.16-.09.24C80.94,363.91,81,363.72,81,363.79Z" transform="translate(-23.83 -316.51)"/><path class="cls-1" d="M81.24,364.45h0C81.32,364.38,81.28,364.41,81.24,364.45Z" transform="translate(-23.83 -316.51)"/><path class="cls-1" d="M81.24,364.45a2.41,2.41,0,0,0-.25.11.56.56,0,0,0,.17,0Z" transform="translate(-23.83 -316.51)"/><path class="cls-1" d="M78.52,365.8c.23-.31.53-.52.32-.16a9.66,9.66,0,0,0,1.44-1.77,1.21,1.21,0,0,1-.45.35,1.51,1.51,0,0,1-.43.74c-.22.08,0-.17.09-.37-.26.41-.55.46-.95,1.06l.22-.15A2.1,2.1,0,0,0,78.52,365.8Z" transform="translate(-23.83 -316.51)"/><path class="cls-1" d="M80.43,364.05h.07a1.93,1.93,0,0,1,.21-.51,1,1,0,0,0-.38.27l.15.21Z" transform="translate(-23.83 -316.51)"/><path class="cls-1" d="M80.67,364.2a3.28,3.28,0,0,0-.8.7c.11.06.31-.19.49-.26-.22-.09.22-.11.28-.4a.22.22,0,0,1,.17,0,.68.68,0,0,1,0-.23v0h0c0,.05,0,.07,0,0h0l-.13.1c0-.11.07-.09.13-.1l0-.05H80.5C80.5,364.12,80.56,364.15,80.67,364.2Z" transform="translate(-23.83 -316.51)"/><path class="cls-1" d="M79.62,366.28l.08-.06S79.62,366.26,79.62,366.28Z" transform="translate(-23.83 -316.51)"/><path class="cls-1" d="M79.8,366.09c.06,0,.2-.11.19,0s-.18.11-.29.18a.81.81,0,0,0,.43-.26l0,0a4.56,4.56,0,0,1,.53-.54Z" transform="translate(-23.83 -316.51)"/><path class="cls-1" d="M80.22,365.27H80l-.23.3.17-.15C79.88,365.55,80.08,365.37,80.22,365.27Z" transform="translate(-23.83 -316.51)"/><polygon class="cls-1" points="56.6 47.12 56.91 46.79 56.42 47.2 56.6 47.12"/><polygon class="cls-1" points="56.36 46.99 56.6 46.68 56.4 46.82 56.36 46.99"/><path class="cls-1" d="M76.12,368.42l.09-.05Z" transform="translate(-23.83 -316.51)"/><path class="cls-1" d="M76.11,368.35l-.17.08Z" transform="translate(-23.83 -316.51)"/><path class="cls-1" d="M73.87,363.25c-.26-.26-.67-.67-.42-.31l.26.34C73.72,363.18,73.79,363.2,73.87,363.25Z" transform="translate(-23.83 -316.51)"/><path class="cls-1" d="M73.82,367.4H74l-.39-.07Z" transform="translate(-23.83 -316.51)"/><path class="cls-1" d="M75.57,367.61l-.28,0Z" transform="translate(-23.83 -316.51)"/><path class="cls-1" d="M76.61,368.32l.22-.32Z" transform="translate(-23.83 -316.51)"/><path class="cls-1" d="M77.5,362.58c0-.17,0-.24-.08-.27C77.44,362.56,77.45,362.93,77.5,362.58Z" transform="translate(-23.83 -316.51)"/><path class="cls-1" d="M72.15,370.58a.58.58,0,0,0,.25-.09A.54.54,0,0,0,72.15,370.58Z" transform="translate(-23.83 -316.51)"/><path class="cls-1" d="M77.29,362.3a.38.38,0,0,1,0,.1c0-.06.08-.12.12-.09C77.4,362.13,77.36,362,77.29,362.3Z" transform="translate(-23.83 -316.51)"/><path class="cls-1" d="M77.42,368.41l0,0S77.42,368.4,77.42,368.41Z" transform="translate(-23.83 -316.51)"/><path class="cls-1" d="M81.79,368.61a.07.07,0,0,1,0,.06S81.84,368.65,81.79,368.61Z" transform="translate(-23.83 -316.51)"/><path class="cls-1" d="M79.32,362.76c.07,0,0,0,0,0Z" transform="translate(-23.83 -316.51)"/><path class="cls-1" d="M78.78,364.37l-.11.18Z" transform="translate(-23.83 -316.51)"/><path class="cls-1" d="M76.71,364.92Z" transform="translate(-23.83 -316.51)"/><path class="cls-1" d="M79.32,363a.66.66,0,0,0,0-.15A.4.4,0,0,0,79.32,363Z" transform="translate(-23.83 -316.51)"/><path class="cls-1" d="M79.4,362.79l0,.06C79.46,362.79,79.48,362.74,79.4,362.79Z" transform="translate(-23.83 -316.51)"/><path class="cls-1" d="M79.24,362.74s.05,0,.07.08,0-.05,0-.06Z" transform="translate(-23.83 -316.51)"/><path class="cls-1" d="M77.06,369.84v0C77.07,369.71,77.06,369.73,77.06,369.84Z" transform="translate(-23.83 -316.51)"/><polygon class="cls-1" points="52.13 50.7 52.12 50.69 52.1 50.68 52.13 50.7"/><path class="cls-1" d="M76.17,367.45c-.39-.36-.33-.33-.24-.27l-.92-.81.58.55Z" transform="translate(-23.83 -316.51)"/><path class="cls-1" d="M76.3,368.46l.28-.26.26-.21h0l-.09.08-.61.43.22-.17,0,0c.51-.36-.81.54-.68.38a2.2,2.2,0,0,1,.39-.25l-.3.13a.83.83,0,0,1,.2-.11H75.9l0,0c-.2.09-.5.21-.63.25a2.14,2.14,0,0,1,.28-.12l-.32.09a1.88,1.88,0,0,1,.6-.21c1.2-.55-.33.1.39-.23l.16,0,.39-.15h0l-.19.06c-.29.1-.59.22-.75.26.1,0,.14-.06-.12,0,.45-.14.34-.11.31-.12l.6-.16c-.18,0-.49.12-.77.17a8.24,8.24,0,0,1,.91-.21c.15,0-.76.16-.86.15.24-.07,0,0-.39-.05.21,0,.38,0,.56-.05l-.5,0,.24,0a7,7,0,0,1-.8,0c-.18,0-.2,0-.15,0l.11,0h.1v.15h.08c.25,0,.48-.07.09-.16a5.75,5.75,0,0,1,.63.07,6.91,6.91,0,0,0-1-.35l.42-.05a5.21,5.21,0,0,1-1.47-.25H73.3s-.32-.17-.31-.18a2.33,2.33,0,0,1,.57.09l-.14-.05a4.47,4.47,0,0,1,.93.13H74c.38.07.79.15,1.16.18l-.16-.06.25,0c.07,0-.07,0-.22-.05l.7.07-.28,0a3.4,3.4,0,0,1,.46.06,3.94,3.94,0,0,1-1.86-.8c.45.24.77.33,1.32.58-.6-.22.25.15.12.11.07,0,.35.1.44.12a4.13,4.13,0,0,1-.55-.21,5.59,5.59,0,0,0,.55.2c-.91-.38-.56-.32-.81-.5.29.15.59.31.49.31.68.31-1-.59-.4-.35,0,0,0,0,.09.09-.24-.17,0-.13.24,0v0c.11,0,.13-.15-.5-.72l.89.76s-.53-.46-1-1-.94-1.06-.94-1.06c.51.51,1.76,1.66,2,2,.09.06.17.13,0-.06s-.76-.72-.79-.78c.61.54.34.28.84.75a6.75,6.75,0,0,1-.79-1l.79.94-.33-.44-.31-.46c.1.17.58.73.78,1-.14-.17,0,0,0-.11l-.17-.19c.14.09-.81-1.33-.64-1.36.1.2.7,1.21.8,1.32a11.19,11.19,0,0,1-1.2-2.93l.16.28s0-.11,0-.21v-.19a19.94,19.94,0,0,0,1.14,3.15c.14.22.19.33.2.3a2.36,2.36,0,0,1,.2.43l.11.15a10.17,10.17,0,0,1-.44-1.12,6.14,6.14,0,0,0,.2.66c-.3-.58-.74-1.75-.56-1.67.12.24.4,1.1.49,1.3-.08-.21-.1-.42,0-.27l.09.34c.1.24-.21-.84,0-.25,0,0,.24.81.14.43-.18-.73-.8-3-.88-3.54a4.47,4.47,0,0,1,.49,1c.14.58.18,1.39.31,1.88,0-.17-.05-.39-.06-.46,0,.15.09.55.11.47-.09-.66.1.05-.06-.56,0-.2.07.13.12.09a5.69,5.69,0,0,1,0-1.67c0,.17,0,.39,0,.49.16,0,.17.37.33.39a2.31,2.31,0,0,1,0,.64c0-.11.07-.33.12-.35,0,.59-.11.08-.12.78a2.47,2.47,0,0,1,.26-.76c0-.6-.13-.13-.22.11a7.29,7.29,0,0,1,.46-2c.16-.18,0,.54,0,.43.25.21.57-1.35.75-.67a7.07,7.07,0,0,1-.4,1.37c-.15.16-.07-.37-.16-.37l0,.27c-.08.16-.16.27-.17.11,0,.48.36.19.33.66a2,2,0,0,0,.29-.49l-.08,0c.12-.41.35-.47.36-.69.21-.23.54-.59.56-.3l-.28.53c.09-.15.1-.35,0-.21.19-.2-.24.79.22.15l.13-.4c.24-.21.73-.68.74-.42.28-.53-.06,0,.24-.61-.4.77-.34-.24-.69.61.32-.74,0-.38.2-1.06-.09.17-.13.36-.21.21l-.1.14v0h0a1.09,1.09,0,0,1-.07.3c-.27.38-.42.28-.57.47,0-.12.11-.2.16-.41l-.23.29c.17-.41,0-.76.35-.93l-.2-.09c0-.27-.2-.42-.35-.27-.08-.12-.35.41-.2.1l-.18.09-.18.1v-.11c-.19-.07-.23.12-.33.2s-.17.07-.22-.34c-.06.11-.12.24-.19.11l0-.39,0,0h-.32a1.48,1.48,0,0,0-.13-.08c-.08-.06-.16-.08-.17.12-.21-1-.64-.17-.86-.31l.08.48c-.14,0-.25.18-.35.42l.12.42c0,.38-.41-.2-.62-.08,0-.16,0-.14.1-.05-.31-.43-.4-.2-.42.06s0,.53-.31.28c0,.16,0,.14-.13.06s0,0,0,0,0,0,0,0l-.2-.16a1.15,1.15,0,0,0,.19.17.31.31,0,0,0-.07.24l-.28-.38s0,0,0,0c-.16-.11.08.21.31.49a.9.9,0,0,0,.09.28c-.48-.59,0,.31-.52-.3.21.35-.08.45.46,1.09-.08-.08-.12-.1-.1-.13s-.23-.05-.11.15l-.44-.41s.11.17.23.33l.24.34a2.14,2.14,0,0,1-.77-.69c.37.65.07.32.5.91l-.3-.25c0,.06.32.45,0,.28-.71-.32-.44.51-1.24.56.54.2.41.18.24.18s-.38,0,0,.18c-.26-.08-.43-.06-.62-.22.17.33-.54.29.14.64-.28,0-.38-.14-.54-.15,0,0,.21.14,0,.13s-.21-.08-.31-.15c0,.31.79.46,1.56.58-.4.06-.35.11.16.2-.26,0-.53,0-.61-.08s-.4.24.22.31c-.16,0-.05.06,0,.08s-.11.1-.06.21l.11,0,.34.07h0V368h0v0s-.16.08-.11.13h-.08c-.52.29.27.08-.32.39l.46-.07c1-.11-.57.29-.16.39l.25-.1c.35,0-1.28.51-1.37.66s-.15,0-.22,0c-.5.42.6-.13.79,0-.3.13-.82.2-.84.35-.22.18,1.13,0,.61.4a1.33,1.33,0,0,1,.65-.27c.13,0-.7.74.07.47l-.17.11a1.36,1.36,0,0,0,.85-.1c-.66.49-.39.51-.14.48s.49-.1-.07.4l.25.17-.11.1c.06.22.37,0,.66-.23a.84.84,0,0,1-.21.24c0,.4.1.39.7-.08l-.26.41c.18-.19-.07.86.47.51a1.58,1.58,0,0,1-.13.18c.28-.18.26.21.4.45s.32.35.62-.49l.16-.18.15-.18c-.21-.21.2-.74.17-1.06.08-.08.09.58,0,.65v-.1c-.22.9.26.41.15,1a.68.68,0,0,1,.47.27l.11.1h.24l0,0,.1,0a1.34,1.34,0,0,0,.39.07l-.13-.71.16,0c.07.16.14.55,0,.54.12.39.16-.37.13-.52.28.26,0,.84.12.85l.1-.07,0-.08c0-.3,0-.59.12-.6s.14.42.19.43,0,.07.06,0h.23l-.24-.52c0-.29.19,0-.08-.61.2.46.42.48.59.42s.29-.23.4-.11c-.08-.43,0-.47.17-.5-.1-.08-.44-.62-.31-.6.69,1.13.49.36,1.14,1-.46-.44.22-.38-.47-1,.14,0,.32.37.59.54-.13-.53.67-.19.79-.6a2.49,2.49,0,0,1-.54-.44l.4.19.41.18c0-.12-.78-.61-.22-.39-.13-.06-.33-.16-.35-.23.51-.06.54-.42.59-.8a1,1,0,0,1,.2-.54,1.06,1.06,0,0,1,.78-.4c-.34,0-.37,0-.38-.07a5.29,5.29,0,0,1-.65-.06l.66-.11c-.64-.1,0-.2-.64-.28l.11.06c-.72-.15-1.63,0-2.57-.16.82.17-1.24.1-.07.36a3.32,3.32,0,0,1-.52-.06c.4.09.47.1.28.1l-.1,0c0,.08-.32,0-.58-.09l.43.19a2.4,2.4,0,0,1-.31-.11c.62.33.07,0,.76.3-.88-.37-.13.19-1-.33,0,0,.46.27.44.3l-.25-.15.31.21a3.1,3.1,0,0,1-.57-.35l-.07-.06c-.29-.19.06.1,0,0l.15.09c.15.23-.14,0,.17.52l.14.16c.19.38-.2-.14-.15.07l0-.05c.12.2.15.3.11.29-.12-.22-.3-.4-.43-.66.16.41.16.31.48,1.05l-.18-.31a1.29,1.29,0,0,1,.18.58c-.09-.31-.26-.48-.39-.88-.37-.68.15.79-.28-.28.28,1,.27.5.31.71s.22.72.13.64-.45-1.21-.49-1.17,0-.07,0-.07c-.07-.24,0,.37-.07-.05.09.6,0,0,.07.74l.05-.18c0,.19.08,1.1-.08.67,0-.16,0-.36,0-.48s0,.16-.07-.07c-.08-.78.07-.18,0-.76-.06-.33,0,.55-.08-.28.11,1.06,0-.13,0,.69l0-.47a2.11,2.11,0,0,1,0,.29v-.61c0,.26,0,.15,0,0v-.1h.26v-.06c0-.05,0-.06-.07,0s.07,0,.07.09v0h-.26v.18a5.46,5.46,0,0,0,0,.58v.07H77v0l0,0s0,0,0-.06,0-.25,0-.43c0-.35,0-.76-.12-.66,0-.06.09.29,0,.5a1.5,1.5,0,0,1-.08-.53c-.17.08,0,.48-.12.76,0-.57-.1.22-.19.39l0-.47c-.07-.32-.14,1-.16.58l.06-.32c0-.15.05-.31.05-.31l0,.15.09-.53c0,.39,0,.28,0,.14a6.61,6.61,0,0,1-.26.83c.08-.27.14-.43.11-.36.11-.28.22-.64.08-.22,0-.15.09-.29.13-.43.11-.31.06-.05.06-.05l0,.1a2.85,2.85,0,0,1-.12.31l-.16.28c.07-.16.14-.29.2-.41,0,0-.13.23-.16.26l.42-.86-.09.19-.11.18c.08-.15.21-.41.28-.53s-.4.64-.26.38l-.12.15c0-.09.33-.46,0-.07l.43-.48c-.07.05-.55.63-.76.78s.4-.42.53-.56c-.24.24-.79.68-.38.29C76.33,368.42,76.26,368.49,76.3,368.46Zm-.42-.12c.09,0,.38-.13.12,0C75.49,368.5,75.73,368.4,75.88,368.34Zm-1.11-.95c.15,0,.06,0-.12,0S74.64,367.38,74.77,367.39Zm3.74-4.54v0C78.45,362.66,78.46,362.74,78.51,362.85Zm.15.26a.3.3,0,0,0,.08-.18c0,.11-.1.1-.15.05C78.57,363.1,78.57,363.19,78.66,363.11ZM78,372.9l-.06-.11C78,372.64,78,372.76,78,372.9Z" transform="translate(-23.83 -316.51)"/><path class="cls-1" d="M75.37,367.58h-.26A1.11,1.11,0,0,0,75.37,367.58Z" transform="translate(-23.83 -316.51)"/><polygon class="cls-1" points="52.73 51.87 52.73 51.88 52.78 51.81 52.73 51.87"/><path class="cls-1" d="M76.6,366.8c0-.06,0-.15-.06-.24A1.56,1.56,0,0,0,76.6,366.8Z" transform="translate(-23.83 -316.51)"/><path class="cls-1" d="M80,362.87l-.18,0c.07,0,0,.11,0,.19C79.88,363,79.94,362.86,80,362.87Z" transform="translate(-23.83 -316.51)"/><path class="cls-1" d="M78.93,365.73s0,0,.06,0l.15-.16S79,365.63,78.93,365.73Z" transform="translate(-23.83 -316.51)"/><path class="cls-1" d="M79.24,364.26c-.21.34-.08.24,0,.23h0C79.57,364,79.4,364.14,79.24,364.26Z" transform="translate(-23.83 -316.51)"/><path class="cls-1" d="M79.27,364.49a0,0,0,0,1,0,0C79.46,364.34,79.33,364.46,79.27,364.49Z" transform="translate(-23.83 -316.51)"/><path class="cls-1" d="M79,363c0,.11.23-.46.18-.3C79.45,362.23,78.7,363.11,79,363Z" transform="translate(-23.83 -316.51)"/><polygon class="cls-1" points="54.73 48.87 54.99 48.45 54.74 48.77 54.73 48.87"/><path class="cls-1" d="M78.38,364.87V365a.64.64,0,0,1,.1-.14S78.44,364.74,78.38,364.87Z" transform="translate(-23.83 -316.51)"/><path class="cls-1" d="M78.49,364.89s.05,0,.11,0A.16.16,0,0,0,78.49,364.89Z" transform="translate(-23.83 -316.51)"/><polygon class="cls-1" points="54.56 48.94 54.59 48.84 54.56 48.79 54.56 48.94"/><path class="cls-1" d="M77.47,364.46l-.1.13c0,.16,0,.27,0,.2A.94.94,0,0,0,77.47,364.46Z" transform="translate(-23.83 -316.51)"/><path class="cls-1" d="M77.49,365.85c0-.11,0-.21.05-.37l-.12.59Z" transform="translate(-23.83 -316.51)"/><path class="cls-1" d="M77.33,365.94c0,.16-.18.47-.06.44S77.38,366.09,77.33,365.94Z" transform="translate(-23.83 -316.51)"/><polygon class="cls-1" points="52.37 48.67 52.38 48.66 52.17 47.68 52.37 48.67"/><path class="cls-1" d="M76.54,367.58c.15.2-.32-.52-.14-.27-.11-.21-.15-.2-.25-.38A3.59,3.59,0,0,0,76.54,367.58Z" transform="translate(-23.83 -316.51)"/><path class="cls-1" d="M76.15,366.93l-.07-.13Z" transform="translate(-23.83 -316.51)"/><polygon class="cls-1" points="58.52 51.92 58.73 51.88 58.39 51.88 58.52 51.92"/><path class="cls-1" d="M81.62,368.23l.63,0-.56-.09S81.76,368.23,81.62,368.23Z" transform="translate(-23.83 -316.51)"/><path class="cls-1" d="M76.82,368h0l-.07,0Z" transform="translate(-23.83 -316.51)"/><polygon class="cls-1" points="52.82 51.6 52.83 51.59 52.35 51.9 52.82 51.6"/><path class="cls-1" d="M76.84,368Z" transform="translate(-23.83 -316.51)"/><path class="cls-1" d="M75.85,362.21c.06,0-.07-.37-.08-.44C75.71,361.88,75.89,362.31,75.85,362.21Z" transform="translate(-23.83 -316.51)"/><polygon class="cls-1" points="51.64 46.86 51.58 46.7 51.66 47.11 51.64 46.86"/><path class="cls-1" d="M74.89,363.68c.43.56.14-.22.37-.07l.09.13-.22-.52C75,363.38,75.08,363.79,74.89,363.68Z" transform="translate(-23.83 -316.51)"/><path class="cls-1" d="M73.67,362.69c.19.2.06.24.14,0l-.06,0A.14.14,0,0,1,73.67,362.69Z" transform="translate(-23.83 -316.51)"/><path class="cls-1" d="M73.75,362.65c.06-.07-.19-.15,0,0Z" transform="translate(-23.83 -316.51)"/><path class="cls-1" d="M73.52,363l-.07-.26c-.12-.11-.23-.06-.27-.18C73.17,362.79,73.3,362.88,73.52,363Z" transform="translate(-23.83 -316.51)"/><path class="cls-1" d="M73.78,363.49l0-.12C73.7,363.33,73.68,363.32,73.78,363.49Z" transform="translate(-23.83 -316.51)"/><path class="cls-1" d="M73.7,363.13l.06.24c.08.08.23.25,0-.09C73.87,363.44,73.76,363.27,73.7,363.13Z" transform="translate(-23.83 -316.51)"/><path class="cls-1" d="M73.82,363.16a.48.48,0,0,1,.34.36C74.26,363.33,73.93,363,73.82,363.16Z" transform="translate(-23.83 -316.51)"/><path class="cls-1" d="M75.27,364.3l.16.14-.09-.22C75.38,364.33,75.14,364.12,75.27,364.3Z" transform="translate(-23.83 -316.51)"/><path class="cls-1" d="M72.73,363.31a5.19,5.19,0,0,0,.47.36l-.07-.18A1,1,0,0,1,72.73,363.31Z" transform="translate(-23.83 -316.51)"/><path class="cls-1" d="M73.2,363.67l.1.26C73.4,363.87,73.32,363.77,73.2,363.67Z" transform="translate(-23.83 -316.51)"/><path class="cls-1" d="M74.29,364.08l-.22-.53.1.28.1.27Z" transform="translate(-23.83 -316.51)"/><polygon class="cls-1" points="48.55 47.2 48.32 46.93 48.66 47.36 48.55 47.2"/><path class="cls-1" d="M72.23,364c-.21-.21-.45-.2-.56-.35,0,.12.14.32.29.5C71.9,364.05,72,364,72.23,364Z" transform="translate(-23.83 -316.51)"/><path class="cls-1" d="M72.17,364.45a2.57,2.57,0,0,0-.21-.27A.93.93,0,0,0,72.17,364.45Z" transform="translate(-23.83 -316.51)"/><path class="cls-1" d="M73.11,364a1,1,0,0,0-.39-.19l.36.22Z" transform="translate(-23.83 -316.51)"/><path class="cls-1" d="M73.09,364.08h0l-.08.07Z" transform="translate(-23.83 -316.51)"/><path class="cls-1" d="M73.12,364h0S73.16,364.07,73.12,364Z" transform="translate(-23.83 -316.51)"/><path class="cls-1" d="M73.83,364a1.22,1.22,0,0,0,.56.63A5.18,5.18,0,0,1,73.83,364Z" transform="translate(-23.83 -316.51)"/><path class="cls-1" d="M73.56,364.31l.15,0a1.37,1.37,0,0,1-.28-.26Z" transform="translate(-23.83 -316.51)"/><polygon class="cls-1" points="49.8 47.94 49.73 47.81 49.68 47.82 49.8 47.94"/><path class="cls-1" d="M72.63,364.45c.12.15.1.21.09.28a.34.34,0,0,0,.23-.12C72.84,364.54,72.66,364.38,72.63,364.45Z" transform="translate(-23.83 -316.51)"/><path class="cls-1" d="M72.89,364.29v0S72.94,364.33,72.89,364.29Z" transform="translate(-23.83 -316.51)"/><path class="cls-1" d="M72.42,365.33l.08,0-.07,0Z" transform="translate(-23.83 -316.51)"/><path class="cls-1" d="M73,364.65c.1,0,0-.08-.06-.18a.22.22,0,0,1,0,.14S73,364.67,73,364.65Z" transform="translate(-23.83 -316.51)"/><path class="cls-1" d="M72.24,364.72l.25,0C72.35,364.7,72.15,364.66,72.24,364.72Z" transform="translate(-23.83 -316.51)"/><path class="cls-1" d="M72.79,364.26v0C72.7,364.21,72.74,364.23,72.79,364.26Z" transform="translate(-23.83 -316.51)"/><path class="cls-1" d="M72.79,364.26a2.62,2.62,0,0,0,.17.21.64.64,0,0,0-.06-.16Z" transform="translate(-23.83 -316.51)"/><path class="cls-1" d="M74.84,366.5c-.36-.14-.65-.37-.24-.27a9.78,9.78,0,0,0-2.1-.88,1.14,1.14,0,0,1,.46.33,1.57,1.57,0,0,1,.83.2c.14.19-.16,0-.38,0,.47.14.59.4,1.28.62l-.21-.17A3.47,3.47,0,0,0,74.84,366.5Z" transform="translate(-23.83 -316.51)"/><path class="cls-1" d="M72.63,365.15l0-.07a2.09,2.09,0,0,1-.56-.06,1.18,1.18,0,0,0,.38.3l.15-.21Z" transform="translate(-23.83 -316.51)"/><path class="cls-1" d="M72.71,364.87a2.85,2.85,0,0,0,.89.58c0-.12-.27-.24-.39-.4,0,.24-.16-.18-.46-.15a.3.3,0,0,1,0-.17.85.85,0,0,1-.23,0h0s.08,0,0,0h0l.13.08c-.11,0-.1,0-.13-.08l0,0h0s.1.33.1.33S72.69,365,72.71,364.87Z" transform="translate(-23.83 -316.51)"/><path class="cls-1" d="M75,365.31l-.07-.06S75,365.32,75,365.31Z" transform="translate(-23.83 -316.51)"/><path class="cls-1" d="M74.76,365.19c0-.05-.16-.17-.1-.17s.15.14.26.23a1,1,0,0,0-.37-.35l0,.05a3.83,3.83,0,0,1-.66-.36Z" transform="translate(-23.83 -316.51)"/><path class="cls-1" d="M73.86,365l.08.25.35.14-.18-.12C74.23,365.26,74,365.12,73.86,365Z" transform="translate(-23.83 -316.51)"/><polygon class="cls-1" points="48.39 48.76 47.99 48.55 48.52 48.91 48.39 48.76"/><polygon class="cls-1" points="48.33 49.03 47.97 48.88 48.16 49.04 48.33 49.03"/><path class="cls-1" d="M78,368.08,78,368Z" transform="translate(-23.83 -316.51)"/><path class="cls-1" d="M78,368.11l.13.14A1,1,0,0,0,78,368.11Z" transform="translate(-23.83 -316.51)"/><path class="cls-1" d="M73.68,371.67c-.18.33-.45.83-.18.49l.25-.34C73.66,371.83,73.65,371.76,73.68,371.67Z" transform="translate(-23.83 -316.51)"/><path class="cls-1" d="M77.68,370.57a.56.56,0,0,1,0-.12l0,.4C77.67,370.76,77.68,370.67,77.68,370.57Z" transform="translate(-23.83 -316.51)"/><path class="cls-1" d="M77.4,368.83l.11.26A2,2,0,0,0,77.4,368.83Z" transform="translate(-23.83 -316.51)"/><path class="cls-1" d="M77.79,367.64l-.36-.12Z" transform="translate(-23.83 -316.51)"/><path class="cls-1" d="M72,368.37a.58.58,0,0,0-.24.15C72,368.43,72.38,368.32,72,368.37Z" transform="translate(-23.83 -316.51)"/><path class="cls-1" d="M81.2,371.29a.51.51,0,0,0-.15-.21A.55.55,0,0,0,81.2,371.29Z" transform="translate(-23.83 -316.51)"/><path class="cls-1" d="M71.82,368.65l.09,0c-.07,0-.14,0-.12-.09C71.62,368.6,71.52,368.66,71.82,368.65Z" transform="translate(-23.83 -316.51)"/><path class="cls-1" d="M77.65,366.83l0-.05Z" transform="translate(-23.83 -316.51)"/><path class="cls-1" d="M76.64,362.58s0,0,0,0S76.66,362.52,76.64,362.58Z" transform="translate(-23.83 -316.51)"/><path class="cls-1" d="M71.69,366.57c0-.06,0,0,0,0Z" transform="translate(-23.83 -316.51)"/><path class="cls-1" d="M73.4,366.64l.19.06A.59.59,0,0,1,73.4,366.64Z" transform="translate(-23.83 -316.51)"/><path class="cls-1" d="M74.5,368.48Z" transform="translate(-23.83 -316.51)"/><path class="cls-1" d="M71.9,366.52l-.14.05Z" transform="translate(-23.83 -316.51)"/><path class="cls-1" d="M71.7,366.49l0,0C71.68,366.43,71.64,366.43,71.7,366.49Z" transform="translate(-23.83 -316.51)"/><path class="cls-1" d="M71.7,366.66a.11.11,0,0,1,.06-.09h-.07A.2.2,0,0,1,71.7,366.66Z" transform="translate(-23.83 -316.51)"/><path class="cls-1" d="M79.13,366.78l0,0C79,366.81,79,366.81,79.13,366.78Z" transform="translate(-23.83 -316.51)"/><path class="cls-1" d="M76.9,368.57v0h0Z" transform="translate(-23.83 -316.51)"/><path class="cls-1" d="M77.08,368.3c-.24.47-.23.41-.19.3l-.53,1.11.37-.7Z" transform="translate(-23.83 -316.51)"/><path class="cls-1" d="M78,367.89l-.33-.19-.28-.19h0l.1.07.58.46-.23-.16,0,0c-.49-.39.74.62.55.54a1.76,1.76,0,0,1-.35-.3l.22.26-.17-.17,0,.11,0,0a6.46,6.46,0,0,1,.41.54c-.13-.13-.08-.12-.19-.24l.17.28a1.89,1.89,0,0,1-.37-.52c-.86-1,.19.29-.33-.31l-.09-.14-.26-.33h0l.12.17c.18.25.37.5.45.64-.06-.08-.09-.11,0,.12-.26-.4-.21-.29-.2-.26l-.33-.54c.09.16.25.44.38.69a8.32,8.32,0,0,1-.45-.81c-.08-.13.37.68.38.78-.13-.21,0,0,.06.39-.1-.19-.13-.36-.2-.52l.15.48a1.86,1.86,0,0,1-.08-.23,6,6,0,0,1,.22.77c0,.17,0,.19,0,.15l0-.11,0,0v0h0l.14,0h0l0-.08c-.09-.23-.2-.44-.18-.05,0-.17,0-.38-.1-.61a5.8,5.8,0,0,0,0,1.09l-.17-.39a5,5,0,0,1,.17,1.48c.06.22.12.41.15.5a1.39,1.39,0,0,1-.09.35,3.58,3.58,0,0,1-.07-.57V371a3.94,3.94,0,0,1-.13-.94c0,.13.06.26.1.39a10.8,10.8,0,0,0-.16-1.16.44.44,0,0,1,0,.17c0-.1,0-.19,0-.25s0,.07,0,.23l-.12-.7,0,.28a4,4,0,0,1-.07-.46,3.89,3.89,0,0,1-.26,2c.11-.5.11-.83.19-1.43,0,.64.08-.28.07-.15,0-.07,0-.35,0-.46a3.93,3.93,0,0,1-.06.59,3.16,3.16,0,0,0,0-.58c-.11,1-.15.63-.25.92.06-.32.14-.65.16-.56.11-.74-.29,1.11-.22.48,0,0,0,.05,0-.11-.1.27-.12,0,0-.24h0c0-.11-.18-.09-.54.68l.48-1.08s-.3.64-.65,1.25-.76,1.2-.76,1.2c.35-.63,1.11-2.15,1.34-2.49,0-.1.08-.2-.06,0s-.48.93-.53,1c.35-.72.17-.4.48-1a6.49,6.49,0,0,1-.69,1l.67-1-.33.44-.35.42c.13-.15.54-.76.71-1-.12.18,0,0-.1.05l-.14.21c0-.16-1,1.14-1.12,1a14.74,14.74,0,0,0,1-1.13,11,11,0,0,1-2.48,2l.22-.23-.19.06-.19.06a19.86,19.86,0,0,0,2.72-2c.16-.2.26-.27.22-.27.22-.21.35-.31.36-.32l.13-.14c-.51.44-.54.4-1,.73a5.25,5.25,0,0,0,.58-.38c-.47.45-1.47,1.2-1.45,1,.2-.18,1-.69,1.12-.83-.18.13-.38.2-.25.11l.3-.19c.2-.15-.75.44-.25.07,0,0,.71-.45.38-.26-.65.38-2.63,1.59-3.15,1.83a4.44,4.44,0,0,1,.83-.75c.52-.29,1.29-.56,1.72-.82a3.42,3.42,0,0,1-.43.18c.13-.08.5-.23.42-.23-.61.27,0-.11-.52.21-.19,0,.11-.1.06-.14a5.23,5.23,0,0,1-1.61.44l.46-.17c0-.17.31-.27.28-.42a2.4,2.4,0,0,1,.62-.17c-.12,0-.34,0-.37,0,.56-.18.11.08.78-.1a2.46,2.46,0,0,1-.8,0c-.58.13-.09.16.16.18a6.9,6.9,0,0,1-2.08.12c-.22-.1.52-.16.4-.16.14-.29-1.45-.16-.85-.53a7.44,7.44,0,0,1,1.42,0c.2.1-.33.17-.31.26l.25-.11c.17,0,.3.08.15.13.48-.09.09-.39.55-.5a2.21,2.21,0,0,0-.55-.14l.06.07c-.43,0-.56-.21-.77-.16-.28-.13-.71-.35-.44-.45l.59.12c-.17,0-.37,0-.2.08-.24-.13.83,0,.09-.25l-.43,0c-.27-.17-.85-.51-.61-.6-.58-.12.06.05-.64,0,.84.16-.14.39.77.48-.8-.09-.37.1-1.08.11.2,0,.39,0,.26.14l.17.06h0a1.55,1.55,0,0,1,.31,0c.44.15.39.33.61.42-.11.05-.22-.06-.44-.05l.34.15c-.44,0-.74.17-1-.08l0,.21c-.25.11-.35.31-.16.41-.1.12.49.23.14.17l.15.15L72,368l-.11,0c0,.21.18.2.28.27s.12.14-.26.3c.12,0,.26.05.16.16l-.38.08,0,0h0l.06.27h0v0a1.21,1.21,0,0,1,0,.14c0,.1,0,.18.17.14-.92.47,0,.65-.06.91l.44-.22c0,.14.24.19.5.23l.37-.24c.37-.09-.07.45.1.62-.14.09-.14,0-.08-.08-.33.41-.08.43.18.39s.51-.13.34.21c.16-.07.15,0,.1.11h0a0,0,0,0,0,0,0c0,.07-.07.15-.1.23a.89.89,0,0,0,.11-.23.3.3,0,0,0,.25,0l-.29.38h0c-.06.18.19-.13.39-.43a1.27,1.27,0,0,0,.25-.16c-.44.62.28-.11-.15.58.27-.3.46-.05.92-.74-.05.09-.07.14-.09.13s0,.23.17.06l-.28.54.26-.32.26-.32a2,2,0,0,1-.46.93c.53-.54.3-.15.75-.73l-.17.36c.07,0,.35-.44.27-.12-.12.77.61.29.88,1,0-.57.06-.44.1-.27s.12.36.16-.08a1.32,1.32,0,0,1,0,.66c.27-.26.43.43.58-.32,0,.27,0,.4,0,.56,0-.06.07-.24.11-.08s0,.23-.06.35c.32-.06.22-.89.13-1.66.17.36.21.3.15-.21.07.25.16.5.09.61s.35.32.24-.3c0,.15.07,0,.07,0s.13.07.22,0l0-.1c0-.19,0-.29,0-.35v0h0l.08,0h0s.12.13.16.07l0,.07c.42.42,0-.28.46.21l-.19-.43c-.39-.93.43.47.42.05l-.17-.22c-.11-.32.84,1.1,1,1.14s0,.14,0,.22c.55.36-.28-.55-.2-.77.21.26.41.73.57.71.23.16-.31-1.09.21-.7a1.33,1.33,0,0,1-.44-.55c0-.13.91.47.43-.19l.16.13a1.48,1.48,0,0,0-.33-.79c.65.5.59.24.49,0s-.23-.45.4,0l.1-.29.13.08c.19-.12-.11-.36-.41-.57a1,1,0,0,1,.29.13c.39-.11.35-.2-.27-.65l.47.14c-.24-.12.84-.17.35-.59l.21.07c-.25-.22.13-.31.33-.5s.24-.42-.64-.47l-.22-.1-.22-.1c-.14.26-.77,0-1.06.13-.1,0,.53-.25.62-.15l-.08,0c.92,0,.31-.36.93-.43a.66.66,0,0,1,.13-.52l.07-.14h0l0-.18h0v-.18a1,1,0,0,0,0-.39l-.65.32,0-.16c.14-.11.49-.29.51-.16.35-.22-.39,0-.53,0,.17-.34.79-.28.78-.35l-.09-.07-.06.06c-.31.05-.57.18-.61.05s.36-.26.36-.3.06-.05,0-.06l-.07-.23-.43.38c-.29.07-.08-.18-.57.25.38-.32.34-.54.24-.69s-.3-.21-.22-.35c-.38.19-.45.12-.52,0-.06.12-.47.6-.49.47.89-1,.2-.57.67-1.39-.29.56-.42-.1-.79.73,0-.15.27-.42.37-.72-.48.27-.38-.6-.81-.59a2.16,2.16,0,0,1-.27.63s0-.21.07-.43l.06-.44c-.1,0-.37.91-.31.31,0,.15-.06.36-.12.4-.2-.47-.56-.4-.93-.34a1,1,0,0,1-.59,0,1.08,1.08,0,0,1-.59-.63c.11.32.08.36,0,.38s.07.42.12.64l-.29-.6c.08.64-.19.08-.1.69l0-.12c.06.73.4,1.58.55,2.51-.06-.84.45,1.17.37,0,.07.18,0,.3.09.52,0-.41,0-.48,0-.3v.1c.06-.07.07.31.07.58l.06-.46a2.13,2.13,0,0,1,0,.33c.14-.69,0-.06.08-.82-.11.94.22.07,0,1.11,0,0,.14-.52.17-.51l-.08.28.12-.36a3.51,3.51,0,0,1-.18.65l0,.08c-.1.33.08-.08,0,0l0-.17c.17-.21.07.13.45-.3l.11-.19c.31-.28-.08.23.11.13l0,0c.16-.17.25-.23.25-.19-.18.18-.31.41-.51.6.34-.27.24-.24.87-.76l-.25.27c.26-.21.39-.33.51-.34-.27.17-.39.39-.74.63-.55.54.72-.37-.19.34.85-.53.41-.4.6-.5s.63-.4.58-.3-1,.77-1,.8-.07,0-.07,0c-.21.14.35-.13,0,.09.55-.25,0,.05.68-.27h-.18c.18-.07,1-.38.67-.11l-.46.14c-.2.11.16,0,0,.09-.73.29-.2,0-.74.2-.29.15.53-.18-.24.15,1-.4-.12.09.67-.17l-.44.16.27-.07-.58.18c.25-.08.15,0,0,0l-.09,0h0l-.06-.26h0l0,0s0,0,0,0,0-.07.07-.09h0l.06.25h0l0,0,.13,0a4.42,4.42,0,0,0,.55-.17h.07l0-.16h0l0,0s0,0,0,.05a3.41,3.41,0,0,1-.41.13c-.34.1-.73.21-.6.3-.07,0,.25-.16.47-.15a1.68,1.68,0,0,1-.48.22c.12.14.46-.11.76-.1-.55.16.24,0,.43.07l-.47.09c-.29.16,1-.13.6,0l-.32,0-.32,0,.16,0-.54.06c.39-.06.29,0,.13-.05a6.26,6.26,0,0,1,.87,0H78c-.32,0-.07,0-.06-.05l.11,0,.33,0,.31.07-.45-.07a2,2,0,0,1,.29.08l-.94-.17.21,0,.2.05-.59-.12c-.22-.07.73.2.44.15l.18.07c-.1,0-.53-.19-.06.05l-.58-.28c.07.05.76.35,1,.51s-.52-.27-.7-.36c.31.17.88.58.39.3C78,367.88,78.05,367.93,78,367.89Zm0,.45c-.05-.09-.22-.34-.05-.12C78.28,368.66,78.11,368.46,78,368.34Zm-.6,1.33c0-.16,0-.08.06.1S77.44,369.79,77.41,369.67ZM72,367.32h0C71.84,367.44,71.92,367.4,72,367.32Zm.21-.21a.46.46,0,0,0-.2,0c.12,0,.13.07.09.13C72.24,367.2,72.32,367.18,72.22,367.11ZM81.8,365l-.09.09C81.55,365.1,81.67,365.06,81.8,365Z" transform="translate(-23.83 -316.51)"/><path class="cls-1" d="M77.43,369c0,.07,0,.16,0,.25A.74.74,0,0,0,77.43,369Z" transform="translate(-23.83 -316.51)"/><polygon class="cls-1" points="54.03 51.16 54.04 51.16 53.96 51.13 54.03 51.16"/><path class="cls-1" d="M76.34,368.06l-.22.13A1.38,1.38,0,0,0,76.34,368.06Z" transform="translate(-23.83 -316.51)"/><path class="cls-1" d="M71.62,365.9l.09.17c0-.07.1-.07.18-.08C71.78,366,71.62,366,71.62,365.9Z" transform="translate(-23.83 -316.51)"/><path class="cls-1" d="M74.66,366.13s0,0,0-.06l-.2-.1S74.56,366.13,74.66,366.13Z" transform="translate(-23.83 -316.51)"/><path class="cls-1" d="M73.16,366.24c.38.1.26,0,.22-.08h0C72.85,366,73,366.11,73.16,366.24Z" transform="translate(-23.83 -316.51)"/><path class="cls-1" d="M73.37,366.14a0,0,0,0,1,0-.06C73.18,366,73.33,366.09,73.37,366.14Z" transform="translate(-23.83 -316.51)"/><path class="cls-1" d="M72,366.81c.11,0-.5-.1-.33-.1C71.15,366.6,72.21,367.07,72,366.81Z" transform="translate(-23.83 -316.51)"/><polygon class="cls-1" points="50.59 50.07 50.12 49.94 50.49 50.09 50.59 50.07"/><path class="cls-1" d="M74,366.89l.15-.06a.43.43,0,0,1-.16-.05C74,366.83,73.84,366.87,74,366.89Z" transform="translate(-23.83 -316.51)"/><path class="cls-1" d="M74,366.78s0-.06-.06-.09A.14.14,0,0,0,74,366.78Z" transform="translate(-23.83 -316.51)"/><polygon class="cls-1" points="50.71 50.21 50.61 50.21 50.56 50.25 50.71 50.21"/><path class="cls-1" d="M73.84,367.88l.15.06c.17,0,.27-.06.2-.08A1.09,1.09,0,0,0,73.84,367.88Z" transform="translate(-23.83 -316.51)"/><path class="cls-1" d="M75.17,367.48l-.37,0,.61,0Z" transform="translate(-23.83 -316.51)"/><path class="cls-1" d="M75.3,367.61c.17,0,.5,0,.44-.07S75.43,367.52,75.3,367.61Z" transform="translate(-23.83 -316.51)"/><polygon class="cls-1" points="51.06 52.4 51.04 52.38 50.16 52.86 51.06 52.4"/><path class="cls-1" d="M77.1,367.9c.15-.19-.41.46-.22.22-.17.17-.15.2-.29.34A2.73,2.73,0,0,0,77.1,367.9Z" transform="translate(-23.83 -316.51)"/><path class="cls-1" d="M76.59,368.46l-.11.11Z" transform="translate(-23.83 -316.51)"/><polygon class="cls-1" points="52.47 45.59 52.37 45.4 52.47 45.72 52.47 45.59"/><path class="cls-1" d="M76.31,362.85l-.13-.63.07.58S76.28,362.71,76.31,362.85Z" transform="translate(-23.83 -316.51)"/><path class="cls-1" d="M77.43,367.52h0l0,.06Z" transform="translate(-23.83 -316.51)"/><polygon class="cls-1" points="53.75 51.15 53.74 51.14 54.17 51.52 53.75 51.15"/><path class="cls-1" d="M77.41,367.51Z" transform="translate(-23.83 -316.51)"/><path class="cls-1" d="M73.24,367.14a3.66,3.66,0,1,1,3.66,3.54A3.6,3.6,0,0,1,73.24,367.14Z" transform="translate(-23.83 -316.51)"/><path class="cls-1" d="M73.77,367.58a3.66,3.66,0,1,1,3.66,3.53A3.6,3.6,0,0,1,73.77,367.58Z" transform="translate(-23.83 -316.51)"/><path class="cls-1" d="M89.4,374.06a.29.29,0,1,1-.58,0,.29.29,0,1,1,.58,0Z" transform="translate(-23.83 -316.51)"/><path class="cls-1" d="M90.88,368.1a.29.29,0,1,1-.58,0,.29.29,0,1,1,.58,0Z" transform="translate(-23.83 -316.51)"/><path class="cls-1" d="M86.52,359.11a.3.3,0,1,1-.59,0,.3.3,0,1,1,.59,0Z" transform="translate(-23.83 -316.51)"/><path class="cls-1" d="M73.69,354.21a.31.31,0,0,1-.29.33.31.31,0,0,1-.29-.33.3.3,0,0,1,.29-.33A.31.31,0,0,1,73.69,354.21Z" transform="translate(-23.83 -316.51)"/><path class="cls-1" d="M336.65,393.27c-3.69,3.69-9.48,8.4-14.85,8.76-3.94,0-6.25-1-7.63-4.92a.78.78,0,0,1-.05-.14c-.08-.21-.15-.42-.21-.64a13.87,13.87,0,0,1-.42-3.45A32,32,0,0,1,315,384a58.81,58.81,0,0,1,4.58-11.23,72.59,72.59,0,0,1,17.37-21.45c3.43-2.86,8.5-6.29,13.11-6.29,1.57.09,2.13.7,2.29,2.26a17.45,17.45,0,0,1-.76,3.79,102.44,102.44,0,0,1-5.94,15.16c0,.13-.06.26-.26.33,0-.43-.08-.85-.12-1.31a6.37,6.37,0,0,0-.34-1.61,4,4,0,0,0-2.3-2.94c-.1,0-.15-.05-.2-.05a.51.51,0,0,0-.41.25.36.36,0,0,0-.08.38.41.41,0,0,0,0,.22.38.38,0,0,0,0,.15.21.21,0,0,0,0,.11s0,0,0,.05V362a.43.43,0,0,0,0,.16.21.21,0,0,0,0,.11v0a.41.41,0,0,0,0,.19.34.34,0,0,0,0,.2.7.7,0,0,0,.08.36,1.59,1.59,0,0,0,.36.41,1.67,1.67,0,0,1,0-.34l.1.09a1.72,1.72,0,0,1,0-.34.29.29,0,0,1,.19-.07.81.81,0,0,1,.46.15c.67.36.82,1,1,1.69a13,13,0,0,1,.24,2.41c0,.19,0,.38,0,.58V369a7.77,7.77,0,0,0,0,.84,1,1,0,0,0,.62.82h.1c.26,0,.36-.36.51-.56s.1-.16.16-.26l0-.05a.75.75,0,0,0,.11-.2c2.41-5,7.12-15.11,7.33-20.69,0-.23,0-.45,0-.67v-.43a6.85,6.85,0,0,0-.28-2.14,1.27,1.27,0,0,0-.06-.18,5.36,5.36,0,0,0-.26-.77,3.87,3.87,0,0,0-3.68-2.2c-7.18,0-17,9.57-21.26,14.49-7.22,8.35-14.34,21.2-15.16,32.42-.05.69-.08,1.38-.08,2.06v1.35a15.12,15.12,0,0,0,1,5.69c1.49,3.79,4.46,5.59,8.45,5.59,5.74-.21,11.73-5.59,15.62-9.38a213,213,0,0,0,18.16-20.19,9.25,9.25,0,0,1,.56-1.34v-.87h0v-.86A218.32,218.32,0,0,1,336.65,393.27Z" transform="translate(-23.83 -316.51)"/><path class="cls-1" d="M336.65,393.06c-3.69,3.69-9.48,8.4-14.85,8.76-3.94,0-6.25-1-7.63-4.92a.78.78,0,0,1-.05-.14c-.08-.21-.15-.43-.21-.64a13.89,13.89,0,0,1-.42-3.46,32,32,0,0,1,1.47-8.83,58.81,58.81,0,0,1,4.58-11.23,72.59,72.59,0,0,1,17.37-21.45c3.43-2.86,8.5-6.3,13.11-6.3,1.57.1,2.13.71,2.29,2.26a17.42,17.42,0,0,1-.76,3.8,102.44,102.44,0,0,1-5.94,15.16c0,.13-.06.26-.26.33,0-.43-.08-.85-.12-1.31a6.37,6.37,0,0,0-.34-1.61c-.35-1.27-1.1-2.6-2.3-2.94-.1,0-.15-.05-.2-.05a.51.51,0,0,0-.41.25.36.36,0,0,0-.08.38.41.41,0,0,0,0,.22.38.38,0,0,0,0,.15.21.21,0,0,0,0,.11s0,0,0,0v.12a.43.43,0,0,0,0,.16.21.21,0,0,0,0,.11v0a.41.41,0,0,0,0,.19.34.34,0,0,0,0,.2.7.7,0,0,0,.08.36,1.59,1.59,0,0,0,.36.41,1.67,1.67,0,0,1,0-.34l.1.09a1.65,1.65,0,0,1,0-.34.29.29,0,0,1,.19-.07.81.81,0,0,1,.46.15c.67.36.82,1,1,1.69a13,13,0,0,1,.24,2.41c0,.19,0,.38,0,.58v1.34a7.77,7.77,0,0,0,0,.84,1,1,0,0,0,.62.82h.1c.26,0,.36-.36.51-.56s.1-.16.16-.26,0,0,0,0a1.28,1.28,0,0,0,.11-.2c2.41-5,7.12-15.11,7.33-20.69,0-.23,0-.45,0-.67v-.43a6.81,6.81,0,0,0-.28-2.14,1.27,1.27,0,0,0-.06-.18,5.36,5.36,0,0,0-.26-.77,3.88,3.88,0,0,0-3.68-2.21c-7.18,0-17,9.58-21.26,14.5-7.22,8.35-14.34,21.2-15.16,32.42-.05.69-.08,1.38-.08,2.06v1.35a15.12,15.12,0,0,0,1,5.69c1.49,3.79,4.46,5.59,8.45,5.59,5.74-.21,11.73-5.59,15.62-9.38a213,213,0,0,0,18.16-20.19,9.86,9.86,0,0,1,.56-1.35v-.86h0v-.86A218.32,218.32,0,0,1,336.65,393.06Z" transform="translate(-23.83 -316.51)"/><path class="cls-2" d="M336.65,393.3c-3.69,3.68-9.48,8.4-14.85,8.76-3.94,0-6.25-1-7.63-4.92a1.21,1.21,0,0,1-.05-.14c-.08-.21-.15-.43-.21-.64a13.89,13.89,0,0,1-.42-3.46,32,32,0,0,1,1.47-8.83,58.81,58.81,0,0,1,4.58-11.23,72.59,72.59,0,0,1,17.37-21.45c3.43-2.87,8.5-6.3,13.11-6.3,1.57.1,2.13.71,2.29,2.26a17.42,17.42,0,0,1-.76,3.8,102.44,102.44,0,0,1-5.94,15.16c0,.13-.06.26-.26.33,0-.43-.08-.86-.12-1.32a6.39,6.39,0,0,0-.34-1.6c-.35-1.27-1.1-2.6-2.3-2.94-.1,0-.15-.06-.2-.06a.52.52,0,0,0-.41.26.36.36,0,0,0-.08.38.41.41,0,0,0,0,.22.38.38,0,0,0,0,.15.18.18,0,0,0,0,.1s0,0,0,.06V362a.45.45,0,0,0,0,.16.2.2,0,0,0,0,.11v0a.41.41,0,0,0,0,.19.34.34,0,0,0,0,.2.72.72,0,0,0,.08.36,1.59,1.59,0,0,0,.36.41,1.59,1.59,0,0,1,0-.34.39.39,0,0,0,.1.08,1.61,1.61,0,0,1,0-.33.26.26,0,0,1,.19-.08.83.83,0,0,1,.46.16c.67.35.82,1,1,1.69a13,13,0,0,1,.24,2.41c0,.19,0,.38,0,.58V369a7.77,7.77,0,0,0,0,.84,1,1,0,0,0,.62.82h.1c.26,0,.36-.36.51-.56s.1-.16.16-.26a.08.08,0,0,1,0-.05,1.28,1.28,0,0,0,.11-.2c2.41-5,7.12-15.11,7.33-20.7q0-.33,0-.66v-.43a6.81,6.81,0,0,0-.28-2.14c0-.06,0-.12-.06-.19a6.35,6.35,0,0,0-.26-.77,3.88,3.88,0,0,0-3.68-2.2c-7.18,0-17,9.58-21.26,14.5-7.22,8.34-14.34,21.2-15.16,32.42-.05.69-.08,1.38-.08,2.06v1.35a15.12,15.12,0,0,0,1,5.69c1.49,3.79,4.46,5.58,8.45,5.58,5.74-.2,11.73-5.58,15.62-9.37a214.26,214.26,0,0,0,18.16-20.19,9.86,9.86,0,0,1,.56-1.35v-.86h0v-.86A218.32,218.32,0,0,1,336.65,393.3Z" transform="translate(-23.83 -316.51)"/><path class="cls-4" d="M402.13,378.66c-.29.9-.59,1.8-.88,2.6h0a.46.46,0,0,0,.28-.21A14.43,14.43,0,0,0,403.8,379c3.25-3.65,6.34-7.76,9.67-11.42.32-.27.59-2.41.73-3.62a.69.69,0,0,0-.65-.29C409.16,364.82,404.3,373.61,402.13,378.66Z" transform="translate(-23.83 -316.51)"/><path class="cls-4" d="M366.64,369.48l.33.53c-.07-.12-.14-.22-.21-.35S366.68,369.54,366.64,369.48Z" transform="translate(-23.83 -316.51)"/><path class="cls-4" d="M529.79,370.52a10.16,10.16,0,0,0,5.05-7.65c-.11-.44-.33-.69-.58-.69a.74.74,0,0,0-.48.11,3.23,3.23,0,0,0-1.06,1,16.6,16.6,0,0,0-2.63,4.94q-.36,1-.66,2.16c0,.11-.06.22-.09.33l0,0A1.24,1.24,0,0,0,529.79,370.52Z" transform="translate(-23.83 -316.51)"/><path class="cls-4" d="M382.11,370.52a10.16,10.16,0,0,0,5.05-7.65c-.12-.44-.33-.69-.58-.69a.79.79,0,0,0-.49.11,3.3,3.3,0,0,0-1,1,16.85,16.85,0,0,0-2.64,4.94c-.23.7-.45,1.42-.65,2.16l-.09.33,0,0A1.24,1.24,0,0,0,382.11,370.52Z" transform="translate(-23.83 -316.51)"/><path class="cls-4" d="M487.63,369.5a9.19,9.19,0,0,1-1.62.22,2.61,2.61,0,0,1-1.55-.44,2.59,2.59,0,0,0-.48-.22.37.37,0,0,0-.16.07c.06.39-.22.53-.5.6a12.52,12.52,0,0,0-.74,1.6A63.36,63.36,0,0,0,479.8,382a.86.86,0,0,1,0,.23l0,0c.08,0,.16.11.16.11.24,0,.57-.33.73-.55,2-1.37,5.8-9.06,7.24-12.34h-.34Z" transform="translate(-23.83 -316.51)"/><path class="cls-4" d="M558.08,370.91a1.36,1.36,0,0,0-.73.3c-4.55,2.89-9.58,6.91-11.86,11.67,0,0,0,.07,0,.11a4.2,4.2,0,0,0-.32,1.79s0,.05,0,.09a1.08,1.08,0,0,0,.92.31,5.11,5.11,0,0,0,2.12-.45c5.4-2.3,10-6.88,10.5-12.4,0-.2-.06-.4-.11-.6C558.49,371.13,558.41,370.91,558.08,370.91Z" transform="translate(-23.83 -316.51)"/><path class="cls-4" d="M489.34,362.73c-.25,0-.49-.11-.65-.11a1.35,1.35,0,0,0-.9.33,3,3,0,0,0-.56.56,13.82,13.82,0,0,0-2.12,3c-.13.23-.33.46-.5.7a.8.8,0,0,0,.51.22c.32,0,.65-.12.89-.12,3.25-.22,3.09.23,3.65-3.77a.85.85,0,0,0,0-.17A.91.91,0,0,0,489.34,362.73Z" transform="translate(-23.83 -316.51)"/><path class="cls-2" d="M575.08,362a.3.3,0,0,0,0-.1.27.27,0,0,0,.13-.19.67.67,0,0,0-.32-.15h-.08a.57.57,0,0,0,.13-.08c.08,0,.16-.14.16-.22a.67.67,0,0,0-.32-.15,2,2,0,0,0-.65.08,47.82,47.82,0,0,0-4.63,1.63c-3.41,1.49-6.66,3.12-9.91,4.83-.25.15-.4.3-.65.3s-.24-.15-.41-.37a25.46,25.46,0,0,0-6.66-7.29,1.73,1.73,0,0,1-.29-.23l0-.06c.81-1.12,4.54-4.91,6-4.91a.32.32,0,0,1,.22.07,16.51,16.51,0,0,1-1.84,3.87,2.8,2.8,0,0,0-.41.89.94.94,0,0,0,.08.36c0,.08-.06.14-.08.23a.8.8,0,0,0,.09.36c0,.09-.07.16-.1.25a.9.9,0,0,0,0,.16l0,.06a.74.74,0,0,0,.49.74.28.28,0,0,1,.16.08c.25,0,.33-.3.49-.45a26.48,26.48,0,0,0,2.11-3.72c.09-.21.17-.42.25-.63a4.43,4.43,0,0,0,.45-2.44c0-.14-.07-.25-.1-.38v0c0-.14-.07-.25-.1-.38s0,0,0-.06a2.35,2.35,0,0,0-2.43-2.31c-2.44,0-5.61,3-6.83,4.69a2.93,2.93,0,0,0-.57,2,2.32,2.32,0,0,0,0,.59,2,2,0,0,0,0,.55,3.23,3.23,0,0,0,.75,2,7.81,7.81,0,0,0,2,1.86,20,20,0,0,1,5,5.28,1.19,1.19,0,0,1,.09.15c-.15.1-.33.22-.57.36-3.9,2.38-12.51,8.78-12.76,13.61,0,.14,0,.26,0,.39a1.25,1.25,0,0,1,0,.19c0,.14,0,.26,0,.39a1.81,1.81,0,0,0,0,.23c0,.05,0,.09,0,.14s0,.05,0,.07c0,2.16,1.22,3.42,3.09,3.42a4.83,4.83,0,0,0,1-.15,9.75,9.75,0,0,0,2-.81,21.25,21.25,0,0,0,6.25-4.76,15,15,0,0,0,2.74-4.35,9.32,9.32,0,0,0,.59-6.12c0-.13-.07-.27-.1-.4-.07-.34-.17-.7-.28-1.05l.3-.2c4.79-2.52,9.5-5.05,14.7-6.69a1.33,1.33,0,0,0,.49-.22c.08,0,.16-.15.16-.22l-.08-.06a.3.3,0,0,0,.08-.16l-.07,0,.12-.07c.08,0,.16-.15.16-.23A.68.68,0,0,0,575.08,362Zm-26.9,22.76a5.11,5.11,0,0,1-2.12.45,1.08,1.08,0,0,1-.92-.31s0-.06,0-.09a4.2,4.2,0,0,1,.32-1.79s0-.08,0-.11c2.28-4.76,7.31-8.78,11.86-11.67a1.36,1.36,0,0,1,.73-.3c.33,0,.41.22.49.82,0,.2.08.4.11.6C558.13,377.85,553.58,382.43,548.18,384.73Z" transform="translate(-23.83 -316.51)"/><path class="cls-2" d="M460.26,355.86c.24.44.4.89.73.89h.24a1.3,1.3,0,0,0,.68-1,2.08,2.08,0,0,0,.26-1.1,4.51,4.51,0,0,0-.17-.89c0-.14-.07-.27-.11-.41a3.53,3.53,0,0,0-.9-1.89c-.08,0-.16-.11-.16-.11-.25,0-.32.33-.49.55a2.46,2.46,0,0,0-.37,1.62,2.33,2.33,0,0,0,0,.59c0,.12,0,.24,0,.37A2.49,2.49,0,0,0,460.26,355.86Z" transform="translate(-23.83 -316.51)"/><path class="cls-2" d="M552.78,367.77a1,1,0,0,0,.13-1s0,0,0,0a.72.72,0,0,0-.1-.4v0a.71.71,0,0,0-.09-.43c-.08-.11-.16-.22-.24-.22s-.32.22-.49.45c-3.41,4.88-7.39,8.54-11.37,12.2-2.27,2.1-4.8,3.55-7.48,3.55a5.12,5.12,0,0,1-1.29-.11,3.76,3.76,0,0,1-3.42-2.73,15,15,0,0,1,0-3.95,6.22,6.22,0,0,1,.17-.95,2,2,0,0,1,1.24-1.16c2-.67,3.58-2.55,4.8-5.21.12-.29.23-.58.33-.88a7.93,7.93,0,0,0,.61-3.45,5.42,5.42,0,0,0-.21-1.5,4.11,4.11,0,0,0-.1-.41c-.2-1.23-.77-1.95-1.61-1.95a3.66,3.66,0,0,0-2.11,1.22A19.88,19.88,0,0,0,527,371.05c-3.3,2.79-9.52,7.12-12.51,7.12a3.3,3.3,0,0,1-1-.1,2.18,2.18,0,0,1-1.82-1.49c0-.15-.07-.26-.08-.42-.16-.89-.16-1.89-.32-2.89-.07-.45-.16-.84-.25-1.2l-.09-.36c-.43-2-1.1-2.85-2-2.85a3.36,3.36,0,0,0-1.78.66,2.62,2.62,0,0,0-.74.45,32.43,32.43,0,0,0-4.79,4.43c-.45.44-.84,1-1.35,1.45a0,0,0,0,1,0,0,45.85,45.85,0,0,0,2-8.88c.05-.4.07-.8.08-1.2v0h0a9.26,9.26,0,0,0-.32-2.7l-.09-.39a6.81,6.81,0,0,0-1-2.42c-.09-.23-.25-.56-.49-.56-.08,0-.16.12-.32.22s-.11.38,0,.61c-.13.15-.08.37,0,.6a.38.38,0,0,0-.08.37,1.48,1.48,0,0,0,.24.84,2.74,2.74,0,0,1,.51,1.36c0,.08,0,.14,0,.22,0,.32-.1.64-.15.95q-4.92,1.05-9.84,1.82a1.17,1.17,0,0,1-.56.11,2.4,2.4,0,0,1,0-.24c.08-.56.24-1.22.32-1.89a4.21,4.21,0,0,0-.17-1.64,1.89,1.89,0,0,0-.1-.41,3.94,3.94,0,0,0-2.29-2.8,1.73,1.73,0,0,0-.73-.23c-.65,0-1.22.56-1.78,1.11a3.8,3.8,0,0,0-.9.89,29.6,29.6,0,0,0-3.82,6.91c-8.77,3.62-17.49,7.39-25.59,13.39a2.38,2.38,0,0,1-1.05.55.56.56,0,0,1-.17,0c.09-.38.28-.79.38-1.11,1.21-3.77,2.52-7.54,3.57-11.43a25.46,25.46,0,0,0,.89-5.76,6,6,0,0,0-.19-1.52,2.12,2.12,0,0,0-.1-.4c-.07-.44-.19-.83-.4-.83s-.25.44-.25.66a48.9,48.9,0,0,1-2,7.88c-.15.43-.39,1.17-.67,2.07-3.87,4-10.84,10-15.26,10a4,4,0,0,1-1.14-.11,2.93,2.93,0,0,1-2.63-2,9.52,9.52,0,0,1,0-2.27,28.94,28.94,0,0,1,1.59-6.6c1.37-3.58,3.36-6.9,5.59-8.49.24-.11.49-.33.73-.33a.42.42,0,0,1,.27.08s0,0,0,.05c-.24.67-.57,1.33-.81,2a1,1,0,0,0-.06.75.84.84,0,0,0,0,.59,1,1,0,0,0-.05.45.49.49,0,0,0,.17.52c.08.1.08.1.17.1s.24-.32.32-.55a6.53,6.53,0,0,0,.6-1.37,14.79,14.79,0,0,0,.51-1.51,3.84,3.84,0,0,0-.09-1.91A2.47,2.47,0,0,0,445,361c-.16-1-.72-1.65-1.57-1.65-.17,0-.41.11-.57.11-3.22,1.06-5.62,5.53-7.05,9.82A94.16,94.16,0,0,1,423.3,378a8.43,8.43,0,0,1-4.47,1.44,2.52,2.52,0,0,1-2.68-1.9q-.07-.4-.12-.9a40.5,40.5,0,0,1,.25-6.32,6.55,6.55,0,0,0-.14-2.14,2.71,2.71,0,0,0-.09-.41,2,2,0,0,0-.3-.87,1.69,1.69,0,0,1-.23-.41,5.57,5.57,0,0,1,.11-1.16,6,6,0,0,0-.13-2.23c0-.15-.07-.28-.1-.42-.28-1.72-1.32-2.87-2.74-2.87a1.84,1.84,0,0,0-.73.1c-2.23.84-4.66,3.38-6.78,6.51,0,0,0-.05,0-.07v0a.8.8,0,0,0-.09-.43c-.08-.11-.16-.22-.24-.22s-.32.22-.49.45c-3.41,4.88-7.39,8.54-11.37,12.2-2.27,2.1-4.8,3.55-7.48,3.55a5.12,5.12,0,0,1-1.29-.11,3.76,3.76,0,0,1-3.42-2.73,15.41,15.41,0,0,1,0-3.95,7.32,7.32,0,0,1,.18-.95,1.93,1.93,0,0,1,1.24-1.16c2-.67,3.58-2.55,4.79-5.21a9.4,9.4,0,0,0,.34-.88,7.79,7.79,0,0,0,.6-3.45,5.45,5.45,0,0,0-.2-1.5,4.11,4.11,0,0,0-.1-.41c-.21-1.23-.77-1.95-1.61-1.95a3.66,3.66,0,0,0-2.11,1.22,19.74,19.74,0,0,0-4.47,9.86h-.16a30.17,30.17,0,0,1-6.33.56H371c-1.87,0-3.42-1-4.64-3.44-.64-1.33-1.29-2-2.11-2-1.78,0-4.46,3.77-5.52,5.44a3.4,3.4,0,0,1-.75,1.19c.25-1.15.45-2.23.63-3.21a29.12,29.12,0,0,0,.89-5.32,6.89,6.89,0,0,0-.23-2.21,1.89,1.89,0,0,0-.1-.41,3,3,0,0,0-.36-1c-.16-.23-.32-.44-.49-.44s-.24.21-.4.77c-.73,3.56-1.5,7.09-2.28,10.62l0,0c-.3,1.65-.69,3.41-1.16,5.24l0-.08c-.32,1.45-.65,2.9-1,4.37a4.57,4.57,0,0,0-.15,1.51,3.9,3.9,0,0,0,0,.59c0,.1,0,.2,0,.3a3.15,3.15,0,0,0,.09,1c.16.55.32,1.11.81,1.11.32,0,.44-.36.51-.73a2.2,2.2,0,0,0,.27-.82c.11-.33.26-.74.43-1.18,1.87-4.75,6.28-13.91,9.27-13.91.73,0,1.3.67,2,1.89a5.09,5.09,0,0,0,4.06,3h1.62c1.3,0,2.68,0,4-.11A11.53,11.53,0,0,0,379,373a12.51,12.51,0,0,0-.06,1.61c0,.19,0,.37,0,.55v.34c-.15,5.57,2.62,9.87,6.89,9.77,4-.18,11.27-7.41,16-13.11a30.74,30.74,0,0,0-2.31,6.59,8.37,8.37,0,0,0-.16,2,3.49,3.49,0,0,0,0,.56,5.15,5.15,0,0,0,0,.55,4.49,4.49,0,0,0,.42,1.95c.33.77.73,1.11,1.22,1.11.89,0,2.19-1.45,2.76-2.22,2.44-2.78,4.55-6,6.9-8.87a36.75,36.75,0,0,1,3.66-4.22c.16-.22.4-.55.65-.55.08,0,.16.11.25.11a.36.36,0,0,1,0,.11c-.08,1-.22,2-.21,3,0,.19,0,.38,0,.56s0,.22,0,.32c0,.31,0,.63,0,.94a13.1,13.1,0,0,0,.65,4.77c.81,2.66,1.79,3.21,3.82,3.21,3.51-.18,10.8-5.74,15.35-9.47a14.73,14.73,0,0,0-.33,3.47v.56c0,.17,0,.33,0,.49a13.37,13.37,0,0,0,.43,3.4c.73,3.11,2.35,4.77,4.71,4.77,3.33,0,10.07-4.95,14.27-9.19a30.84,30.84,0,0,0-1.19,5.44,3.3,3.3,0,0,0,0,.45c0,.05,0,.1,0,.14a3.05,3.05,0,0,0,0,.43,1.15,1.15,0,0,0,0,.18,1,1,0,0,0,0,.17v.05c-.17,1.44.48,2.33,1.21,2.33a1.81,1.81,0,0,0,.73-.22c.73-.45,1.46-1,2.11-1.44a70,70,0,0,1,6.83-4.66,164.7,164.7,0,0,1,16.2-7.79,42.65,42.65,0,0,0-1.57,8.14c0,.14,0,.26,0,.4a1.11,1.11,0,0,0,0,.19c0,.13,0,.26,0,.39l0,.22s0,.1,0,.15,0,0,0,.07c.08,1.33.08,2.67.89,3.66.41.56.82.89,1.14.89,2.2,0,7.31-11.42,8.12-13.64.73-2,1.71-2.78,3.41-3,2.82-.48,5.58-1.05,8.37-1.62a103.5,103.5,0,0,1-3.81,12.52,21.09,21.09,0,0,0-.65,2.1,2.24,2.24,0,0,0,0,.77,2.71,2.71,0,0,0,0,.57,2.86,2.86,0,0,0,0,.5,1.69,1.69,0,0,0,.52,1.36.39.39,0,0,0,.33.11c.32,0,.48-.56.65-.89,2.19-3.77,7.79-11.32,11.45-12.54a1.34,1.34,0,0,1,.57-.1c.65,0,.89.55,1.05,1.66.25,3.66.9,7.76,4.31,7.76a3,3,0,0,0,1-.11c2.54-.62,7.86-4.18,11.07-6.82,0,.24,0,.48,0,.71s0,.37,0,.55v.34c-.15,5.57,2.61,9.87,6.89,9.77,5-.22,14.94-11.32,19-16.86A2.34,2.34,0,0,0,552.78,367.77Zm-23.35,2.62q.3-1.11.66-2.16a16.6,16.6,0,0,1,2.63-4.94,3.23,3.23,0,0,1,1.06-1,.74.74,0,0,1,.48-.11c.25,0,.47.25.58.69a10.16,10.16,0,0,1-5.05,7.65,1.24,1.24,0,0,1-.4.23l0,0C529.37,370.61,529.41,370.5,529.43,370.39Zm-147.68,0c.2-.74.42-1.46.65-2.16a16.85,16.85,0,0,1,2.64-4.94,3.3,3.3,0,0,1,1-1,.79.79,0,0,1,.49-.11c.25,0,.46.25.58.69a10.16,10.16,0,0,1-5.05,7.65,1.24,1.24,0,0,1-.4.23l0,0Zm-15.11-.91c0,.06.08.11.12.18s.14.23.21.35Zm46.83-2c-3.33,3.66-6.42,7.77-9.67,11.42a14.43,14.43,0,0,1-2.27,2.11.46.46,0,0,1-.28.21h0c.29-.8.59-1.7.88-2.6,2.17-5.05,7-13.84,11.42-15a.69.69,0,0,1,.65.29C414.06,365.12,413.79,367.26,413.47,367.53Zm67.26,14.31c-.16.22-.49.55-.73.55,0,0-.08-.11-.16-.11l0,0a.86.86,0,0,0,0-.23,63.36,63.36,0,0,1,2.78-10.7,12.52,12.52,0,0,1,.74-1.6c.28-.07.56-.21.5-.6a.37.37,0,0,1,.16-.07,2.59,2.59,0,0,1,.48.22,2.61,2.61,0,0,0,1.55.44,9.19,9.19,0,0,0,1.62-.22H488C486.53,372.78,482.73,380.47,480.73,381.84Zm8.93-18.31c-.56,4-.4,3.55-3.65,3.77-.24,0-.57.12-.89.12a.8.8,0,0,1-.51-.22c.17-.24.37-.47.5-.7a13.82,13.82,0,0,1,2.12-3,3,3,0,0,1,.56-.56,1.35,1.35,0,0,1,.9-.33c.16,0,.4.11.65.11a.91.91,0,0,1,.36.63A.85.85,0,0,1,489.66,363.53Z" transform="translate(-23.83 -316.51)"/></svg>